<svg xmlns="http://www.w3.org/2000/svg" width="229.621" height="166.024" viewBox="0 0 229.621 166.024">
  <g id="Group_386" data-name="Group 386" transform="translate(-177.051 423.871)">
    <path id="Path_373" data-name="Path 373" d="M329.748-313.459c-.8.579-1.636,1.117-2.393,1.749-.69.573-1.192,1.456-1.958,1.838-2,1-4.083,1.845-6.17,2.658-1.274.5-2.54,1.2-4.013.29a1.815,1.815,0,0,0-1.741.35c-1.541,2.125-3.918,1.887-6.043,2.284-1.633.3-3.467.878-4.931.426-2.517-.778-4.733-.375-7.226-.052a17.114,17.114,0,0,1-8.478-1.134,22.72,22.72,0,0,0-6.759-1.812c-2.568-.266-5.043-1.765-7.467-2.919-.874-.416-1.426-1.466-2.225-2.1a8.714,8.714,0,0,0-2.214-1.238c-.9-.349-2-.314-2.762-.822a50.534,50.534,0,0,1-5.657-4.3c-.823-.732-1.172-1.971-1.863-2.883a8.687,8.687,0,0,0-1.856-1.737c-.732-.527-1.756-.742-2.326-1.384-1.486-1.673-2.81-3.492-4.166-5.277a4.843,4.843,0,0,1-1.365-3.83c.084-.552-.627-1.284-1.084-1.844a17.834,17.834,0,0,1-2.385-2.732,49.035,49.035,0,0,1-2.616-6.392,12.753,12.753,0,0,1-.116-2.728c-.084-.841-.021-2.092-.515-2.421a3.887,3.887,0,0,1-1.588-3.094c-.338-2.279-.728-4.561-.849-6.855a12.872,12.872,0,0,1,.736-3.2c.133-.6.485-1.458.221-1.8-2.071-2.693-.747-5.57-.467-8.323.2-1.983.04-4.284,2.225-5.605a1.5,1.5,0,0,0,.351-1.4c-1.081-2.381.313-4.345,1.014-6.394.516-1.509.971-3.252,2.031-4.314,1.916-1.918,2.845-4.143,3.876-6.572a16.214,16.214,0,0,1,5.133-6.6,22.054,22.054,0,0,0,4.926-5.009c1.48-1.979,3.858-3.335,5.977-4.764.921-.621,2.211-.666,3.276-1.112a8.876,8.876,0,0,0,2.13-1.333c.7-.57,1.175-1.5,1.944-1.876a63.383,63.383,0,0,1,6.9-2.891,12.717,12.717,0,0,1,3.081-.107c.726-.052,1.8,0,2.1-.423,1.208-1.744,3.039-1.687,4.755-1.972a33.486,33.486,0,0,1,5.143-.622,16.076,16.076,0,0,1,3.361.766c.607.132,1.5.48,1.812.209,2.4-2.044,5.026-.684,7.537-.615,1.392.038,3.04.072,4.1.8,2.029,1.384,4.057,1.532,6.41,1.791a17.446,17.446,0,0,1,8.25,3.4,28.7,28.7,0,0,0,6.117,3.519c2.619,1.147,5.429,3.015,6.874,5.36s3.485,3.511,5.3,5.2a41.359,41.359,0,0,1,4.833,6.2,2.83,2.83,0,0,1,.7,1.868c-.362,1.645.28,2.523,1.694,3.183a2.838,2.838,0,0,1,1.276,1.265c1.027,2.2,2.006,4.433,2.891,6.7.492,1.26,1.116,2.5.272,4-.263.469.473,1.547.836,2.306s1.08,1.43,1.217,2.214c.474,2.709,1.349,5.539.955,8.155a23.707,23.707,0,0,0,0,7.24,16.219,16.219,0,0,1-1.094,8.287,28.125,28.125,0,0,0-1.946,7.282,14.989,14.989,0,0,1-3.256,7.675c-1.817,1.992-2.584,4.144-3.628,6.414a25.442,25.442,0,0,1-4.359,5.824c-.729.825-1.967,1.178-2.859,1.889a10,10,0,0,0-1.8,2.022c-.415.579-.517,1.458-1.026,1.879-2.222,1.834-4.521,3.575-6.838,5.287a8.2,8.2,0,0,1-1.838.766Zm-83.832-36.934a54.22,54.22,0,0,0,14.159,25.279,54.181,54.181,0,0,0,38.594,16.148A53.841,53.841,0,0,0,337.519-324.9a53.767,53.767,0,0,0,16.2-38.686A53.6,53.6,0,0,0,337.8-402.383a53.975,53.975,0,0,0-38.786-16.209c-14.829-.034-28.429,5.3-38.662,15.943C246.42-388.156,241.137-370.478,245.916-350.393Z" transform="translate(-6.59)" fill="blue"/>
    <path id="Path_374" data-name="Path 374" d="M287.807-273.562H297.1V-241.9c-3.068,0-6.178.049-9.283-.054-.462-.015-1.006-.68-1.331-1.166-3.165-4.73-6.291-9.486-9.734-14.7v15.8h-9.467v-31.7c3.141,0,6.2-.071,9.25.064.569.026,1.235.8,1.627,1.379,2.824,4.2,5.587,8.432,8.375,12.652.3.452.633.88,1.268,1.757Z" transform="translate(-9.631 -16.025)" fill="blue"/>
    <path id="Path_375" data-name="Path 375" d="M331.523-273.576v9.218c-.825.037-1.562.1-2.3.1-4.23.008-8.461-.025-12.691.026a14.929,14.929,0,0,0-2.609.489l.021.809c1.268.174,2.535.37,3.807.519,2.964.346,6.06.244,8.864,1.1a9.452,9.452,0,0,1,6.527,9.241,10.158,10.158,0,0,1-6.994,9.394,10.585,10.585,0,0,1-3.175.72c-5.631.071-11.263.034-17.064.034v-9.143c5.9-.537,11.821.528,17.6-.607l.057-.853a14.526,14.526,0,0,0-2.221-.476c-2.491-.148-5.008-.05-7.477-.35-5.7-.692-9.579-4.976-9.495-10.251a10.193,10.193,0,0,1,9.9-9.871c5.238-.314,10.5-.163,15.758-.209C330.465-273.691,330.9-273.624,331.523-273.576Z" transform="translate(-13.59 -16.03)" fill="blue"/>
    <path id="Path_376" data-name="Path 376" d="M229.937-241.851a15.833,15.833,0,0,1-15.95-16A15.888,15.888,0,0,1,229.933-273.7a15.987,15.987,0,0,1,15.982,16.023A15.916,15.916,0,0,1,229.937-241.851Zm.032-22.408a6.7,6.7,0,0,0-6.624,6.357,6.768,6.768,0,0,0,6.716,6.706,6.792,6.792,0,0,0,6.436-6.6A6.689,6.689,0,0,0,229.969-264.259Z" transform="translate(-3.942 -16.029)" fill="blue"/>
    <path id="Path_377" data-name="Path 377" d="M336.492-241.832c1.015-2.719,1.928-5.16,2.837-7.6,2.792-7.5,5.617-14.987,8.342-22.51a2.207,2.207,0,0,1,2.6-1.775c2.49.156,5-.024,7.5.092a2.2,2.2,0,0,1,1.648,1.05c3.754,9.869,7.429,19.768,11.11,29.664a6.552,6.552,0,0,1,.18,1.076c-2.862,0-5.608.059-8.348-.056-.475-.02-1.124-.69-1.344-1.209-1.418-3.335-1.386-3.348-5-3.347-2.116,0-4.238.092-6.347-.032a2.246,2.246,0,0,0-2.655,1.777c-.97,2.894-1.048,2.869-4.095,2.873C340.885-241.83,338.848-241.832,336.492-241.832Zm17.225-20.706c-1.174,3.171-2.154,5.822-3.167,8.561h6.326Z" transform="translate(-17.018 -16.025)" fill="blue"/>
    <path id="Path_378" data-name="Path 378" d="M431.289-254.193H417.666v5.273h13.647v6.979H408.161v-31.635h23.178v7.008H417.628v5.223h13.662Z" transform="translate(-24.667 -16.042)" fill="blue"/>
    <path id="Path_379" data-name="Path 379" d="M206.869-265.392c-2.562,1.253-5.107,2.567-7.729,3.705-.382.166-1.216-.4-1.692-.8a6.3,6.3,0,0,0-7.461-1,6.351,6.351,0,0,0-3.428,6.517,6.564,6.564,0,0,0,5.1,5.59,5.878,5.878,0,0,0,5.8-1.726,1.816,1.816,0,0,1,2.616-.352c2.186,1.163,4.438,2.2,6.639,3.279-1.77,5.256-9.386,9.15-15.816,8.226-7.949-1.142-13.384-7.235-13.825-15.5-.383-7.193,4.779-13.923,12.091-15.761C196.132-274.97,203.986-271.569,206.869-265.392Z" transform="translate(0 -16.031)" fill="blue"/>
    <path id="Path_380" data-name="Path 380" d="M378.576-273.68c7.465,0,14.761-.014,22.057.036.411,0,1.157.515,1.173.819.105,2.024.055,4.057.055,6.253h-13.83v5.3h12.685v7.042h-12.8v12.243h-9.345Z" transform="translate(-21.51 -16.03)" fill="blue"/>
    <path id="Path_381" data-name="Path 381" d="M253.241-241.935v-31.576H262.5v31.576Z" transform="translate(-8.132 -16.049)" fill="blue"/>
    <path id="Path_382" data-name="Path 382" d="M314.917-311.879a65.308,65.308,0,0,1-7.327,1.829c-2.519.346-5.073,1.269-7.7-.007-.688-.334-1.9.623-2.833.546a43.882,43.882,0,0,1-8.359-1.116c-4.494-1.277-8.868-2.983-13.263-4.591-.644-.236-1.116-.935-1.674-1.413-.279-.239-.544-.607-.862-.666-4.224-.8-7-3.885-9.694-6.723-.99-1.042-2.2-1.8-3.109-2.864-1.538-1.8-3-3.669-4.456-5.54-1.511-1.945-2.239-4.329-3.654-6.376a29.973,29.973,0,0,1-2.967-6.849,13.766,13.766,0,0,1-.4-3.108c-.029-.25.041-.57-.088-.741-2.325-3.074-2.137-6.767-2.2-10.254a122.767,122.767,0,0,1,.741-13.273c.218-2.425,1.4-4.648,1.922-7.051a34.8,34.8,0,0,1,2.8-6.925,10.114,10.114,0,0,1,1.626-2.01c.162-.192.473-.349.5-.55.484-3.846,3.242-6.365,5.657-8.868a134.834,134.834,0,0,1,10.637-9.349,7.67,7.67,0,0,1,2.426-.9c.239-.082.6-.054.715-.213,2.144-3.007,5.627-3.74,8.764-4.641a77.561,77.561,0,0,1,14.49-2.845c4.1-.361,8.306.255,12.444.658a16.77,16.77,0,0,1,4,1.458c.176.067.365.21.528.185,3.71-.576,6.751,1.41,9.678,3.009a128.529,128.529,0,0,1,11.972,7.98,8.45,8.45,0,0,1,1.6,2.232c.144.206.242.524.438.6,3.44,1.41,5.052,4.592,6.857,7.436a69.426,69.426,0,0,1,3.706,6.263,67.8,67.8,0,0,1,2.8,6.935,7.725,7.725,0,0,1,.156,2.187c.015.305-.113.7.033.9,2.393,3.32,2.218,7.265,2.371,11a78,78,0,0,1-.717,11.662,17.717,17.717,0,0,1-1.543,4.156c-.069.176-.26.359-.234.51.691,3.929-1.494,7.065-3.19,10.162a50.084,50.084,0,0,1-3.39,6c-1.412,1.9-2.834,3.8-4.359,5.606a9.917,9.917,0,0,1-2.09,1.484c-.207.141-.54.22-.619.409-1.54,3.692-4.968,5.465-8.05,7.32-3.976,2.392-8.349,4.124-12.561,6.121a9.872,9.872,0,0,1-1.464.443Zm23.494-79.269-.6-.734-5.857,4.42-.519-.639,5.746-4.711-.507-.619-5.81,4.56-.432-.544,5.412-4.973-.56-.592-5.49,4.88-.561-.59,5.312-5.134-.593-.613-3.765,3.457-.492-.59,3.346-3.536-.693-1.017c-2.145,1.2-3.27,3.985-5.4,5.205l-.4-.429,4.756-5.645-.636-.514-4.867,5.525-.534-.492,4.473-5.784-.658-.527L324.524-395l-.618-.5,4.23-5.98-.706-.481q-2.143,2.98-4.287,5.958l-.635-.411,3.991-6.272-.652-.395-4.2,6.065-.548-.407,3.737-6.332-.745-.418-2.672,4.348-.7-.381c.808-1.474,1.618-2.948,2.615-4.764-2.409-.519-2.249,1.566-2.914,2.465a28.356,28.356,0,0,0-1.973,3.6l-.742-.42,3.264-6.522-.545-.35c-1.876,1.669-1.923,4.668-3.688,6.416l-.513-.278,2.91-6.7-.788-.34-3.027,6.733-.5-.216c.2-2.451,2.1-4.536,2.251-7l-.706-.186-2.53,6.791-.768-.255,2.344-7.005-.89-.3q-1.151,3.5-2.3,7l-.777-.262c.356-1.239.731-2.473,1.064-3.718.307-1.143.57-2.3.853-3.447l-.714-.122q-.766,2.423-1.534,4.847l-.65-.166,1.08-5.164c-2.452.164-1.664,2.065-2.07,3.127a27.607,27.607,0,0,0-.909,3.894l-.791-.146,1.286-7.172-.822-.118c-.24,1.208-.467,2.418-.724,3.623-.244,1.147-.518,2.288-.779,3.431l-.657-.194,1.046-7.07-.845-.144q-.581,3.606-1.161,7.211l-.712-.136.708-7.3-.8-.1-.881,7.28-.718-.079.407-7.21-.765-.063q-.336,3.643-.672,7.285l-.7-.071v-7.342l-.574-.052q-.227,2.587-.452,5.174l-.7-.078a15.468,15.468,0,0,0-.027-2.426,21.456,21.456,0,0,0-.75-2.622,16.339,16.339,0,0,0-.611,2.666c-.1,1.564-.028,3.14-.028,4.711l-.589.021q-.347-3.607-.693-7.215l-.787.069q.233,3.606.465,7.21l-.713.052-.925-7.269-.857.067q.411,3.7.824,7.4l-.75.072q-.612-3.623-1.224-7.245l-.848.159q.583,3.581,1.168,7.164l-.728.129q-.8-3.547-1.6-7.093l-.807.208c.26,1.2.54,2.4.774,3.6.225,1.163.4,2.336.6,3.5l-.695.148-1.79-7.1-.807.2q.549,2.515,1.1,5.029l-.687.161-1.469-4.773-.754-.049c-1.141,1.021.1,2.331.345,3.456.292,1.333.792,2.62,1.2,3.927l-.762.237-2.487-6.939-.775.3q1.178,3.485,2.355,6.971l-.7.293q-1.369-3.448-2.74-6.894l-.867.388,2.786,6.773-.775.328c-.515-1.15-.973-2.331-1.565-3.439-.563-1.053-.538-2.575-2.411-3.335l3.11,7.188-.7.314q-1.619-3.33-3.238-6.657l-.779.41,3.157,6.683-.688.329q-1.73-3.248-3.461-6.494l-.78.373q1.171,2.358,2.344,4.716l-.661.306c-.543-.9-1.091-1.8-1.628-2.7-1-1.683-1-1.684-2.172-.726l3.848,6.037-.665.432-4.255-6.095-.715.5,4.2,6.086-.657.456-4.387-5.871-.708.469,4.331,5.993-.572.4-4.731-5.6-.606.539q2.315,2.846,4.632,5.693l-.569.485-4.988-5.479-.62.565,4.876,5.57-.565.492-5.163-5.3-.59.561,3.447,3.828-.553.535c-.946-.929-1.839-1.922-2.865-2.752-.364-.295-1.048-.193-1.586-.272l-.142.6,5.31,4.948-.414.5c-2.232-1.087-3.593-3.541-5.871-4.555l-.39.51,5.545,4.841-.486.618-5.766-4.586-.569.728,5.8,4.561-.487.6-6.043-4.265-.5.715c.99.7,1.984,1.4,2.968,2.1s1.972,1.442,2.958,2.163l-.478.65-6.03-4.047-.488.653,6.057,4.247-.4.622-6.285-3.864-.426.716,4.241,2.859-.351.563-4.4-2.33-.5.279c.236.5.339,1.209.731,1.446,1.31.8,2.733,1.4,4.093,2.121a13.449,13.449,0,0,1,1.36.939l-.329.6-6.633-3.234-.355.792,6.586,3.272-.337.655c-1.2-.514-2.4-1.008-3.589-1.544-2.62-1.184-2.615-1.192-3.582-.53l6.829,2.949-.233.561c-2.474-.184-4.553-2.222-7.056-2.269l-.17.657,6.862,2.647-.279.762-6.957-2.427-.3.709c2.028,1.408,4.8,1.329,6.883,2.632l-.159.582-7.118-1.923-.188.762,4.88,1.609-.23.674c-1.259-.308-2.55-.519-3.765-.95-1.242-.439-1.442.079-1.414,1.161l7.067,1.693-.154.722-7.3-1.362-.168.864,7.268,1.421-.147.7-3.662-.473-3.553-.454-.113.748,7.13,1.208-.138.709-7.118-.741-.12.836,7.274.862-.1.7-7.35-.368-.057.932,7.348.316-.036.818c-2.447.173-4.971-.4-7.394.006l.011.739,5.137.331-.028.62h-5.037c-.028.538-.062,1-.051,1,2.456.238,4.915.443,7.374.649l.057.458-7.269.617.094.812c1.226-.067,2.454-.129,3.68-.2,1.184-.071,2.367-.155,3.552-.235l.054.7-7.265.992.146.833,7.233-.887.116.76-7.183,1.216.128.862c1.162-.188,2.323-.39,3.489-.557,1.227-.175,2.459-.317,3.688-.473l.09.678-7.058,1.437.107.83,7.252-1.333c-1.948,1.943-4.917,1.185-6.909,2.786l.17.546,4.92-1.1.171.658-4.718,1.507-.155.575c.51.17,1.081.578,1.52.466,1.609-.408,3.167-1.009,4.759-1.49a5.672,5.672,0,0,1,1.288-.091l.115.524-6.951,2.48.285.784,7-2.363.223.676c-.788.327-1.571.664-2.364.979-.833.332-1.69.607-2.5.976-.648.3-1.25.7-1.872,1.05l.341.546,6.839-2.674.28.674-6.748,3.075.384.821,6.693-3.059.361.69-6.6,3.355.284.6c1.234.048,2.167-.884,3.232-1.354,1.178-.52,2.314-1.134,3.469-1.705l.291.489c-1.738,1.782-4.586,2.15-6.325,3.933l.4.573,4.542-2.335.371.628c-1.208.725-2.439,1.417-3.606,2.2-.268.18-.316.685-.465,1.041.421.061.944.31,1.244.147,1.067-.578,2.045-1.317,3.082-1.954.789-.485,1.616-.909,2.426-1.36l.364.593c-1.074.72-2.164,1.419-3.218,2.167-.954.677-1.87,1.41-2.8,2.118l.5.607,6.03-4.166.423.595c-1.634,1.855-4.314,2.642-5.771,4.678l.465.544,5.862-4.446.481.592-5.641,4.758.542.618,5.71-4.583.444.557-5.424,4.947.572.624,5.511-4.912.515.6-5.285,5.185.553.557,3.841-3.417.5.532c-.892.921-1.744,1.886-2.688,2.75-.9.826-.766,1.326.37,1.761l4.9-5.23.528.5-4.754,5.694.617.515,4.9-5.548.534.472q-2.252,2.906-4.507,5.811l.649.5,4.661-5.724.594.5q-2.2,2.937-4.4,5.873l.754.568,4.352-5.965.647.44-4.094,6.185.724.5,4.134-6.142.618.43-3.748,6.322.712.419,2.809-4.359.591.362c-.49.908-.964,1.826-1.475,2.723-.976,1.712-.985,1.706.395,2.368l3.382-6.37.72.377-3.22,6.582.741.39,3.31-6.558.64.283-2.825,6.8.787.3q1.462-3.356,2.923-6.714l.756.312-2.7,6.77.725.343c1.446-2,1.541-4.754,3.14-6.7.146,2.574-1.8,4.7-1.67,7.226l.6.167q1.168-3.472,2.338-6.944l.536.184c.111,2.515-1.895,4.729-1.523,7.28l.534.125,1.537-4.954.777.257c-.369,1.3-.793,2.592-1.067,3.913-.074.356.305.807.477,1.214.322-.272.846-.492.934-.827.441-1.668.749-3.369,1.15-5.048a5.4,5.4,0,0,1,.573-1.135l.514.184-1.405,7.121.734.221c1.108-2.178.615-4.944,1.757-7.109l.554.116-1.048,7.188.831.14q.6-3.628,1.2-7.257l.7.1c-.139,1.272-.3,2.541-.41,3.816-.1,1.192-.141,2.388-.207,3.582h.749q.419-3.624.84-7.249l.591.055v7.2l.594.013q.247-3.575.492-7.149l.714.012v7.232l.7.009.44-5,.693.063c0,1.191-.076,2.389.037,3.57.047.489.5.939.768,1.406.228-.5.649-1,.648-1.5-.007-1.536-.2-3.068-.268-4.606a6.032,6.032,0,0,1,.216-1.281l.582.016.63,7.276.816-.094q-.221-3.566-.441-7.13l.681-.071q.462,3.611.924,7.221l.8-.079-.716-7.444.668-.055,1.268,7.267.779-.158q-.505-3.6-1.009-7.2l.571-.071c1.087,2.2.48,4.965,1.883,7.055l.584-.15q-.709-3.557-1.419-7.116l.714-.146,1.847,7.078.777-.222c-.185-.832-.389-1.661-.551-2.5s-.28-1.684-.418-2.525l.6-.118,1.472,4.93,1.322-.594c-.7-2.378-1.373-4.653-2.044-6.928l.72-.222,2.374,6.947.9-.273-2.465-6.973.8-.251,2.643,6.813.827-.3-2.642-6.934.691-.3,3.02,6.753.842-.376q-1.54-3.371-3.08-6.741l.783-.347,3.208,6.624.8-.349L318.129-327l.533-.289c1.647,1.836,2.089,4.62,3.9,6.33l.561-.4-2.372-4.414.69-.362,2.61,4.291.661-.075a4.7,4.7,0,0,0,.053-1.518,6.209,6.209,0,0,0-.885-1.477q-1.245-1.92-2.5-3.831l.681-.464,4.209,6.057.7-.488-4.155-6.122.716-.469c.745,1.048,1.461,2.117,2.242,3.138.714.933,1.5,1.814,2.25,2.719l.513-.5-4.3-5.887.618-.439c.823,1.017,1.661,2.023,2.465,3.055,1.793,2.3,1.787,2.3,2.794,2l-4.574-5.674.6-.481,4.907,5.529.693-.575-4.946-5.548.6-.51,5.15,5.211.594-.574-3.5-3.752.563-.493,3.841,3.6c1.294-2.176-.913-2.472-1.583-3.364a26.078,26.078,0,0,0-2.887-2.86l.523-.5c1,.858,2,1.7,2.99,2.574,2.188,1.937,2.184,1.942,3.143,1.49l-5.593-4.785.536-.607,5.773,4.567.549-.646-5.779-4.647.394-.581,6.135,4.214.434-.678-5.925-4.269.459-.673,6.154,4.059.474-.741-6.128-4.1.423-.615,6.312,3.731.406-.713-4.289-2.753.412-.624,4.375,2.406.7-.864c-1.558-2-4.7-2.213-6.395-4.06l.317-.512,6.641,3.22.367-.763-6.607-3.32.338-.662,6.709,2.935.371-.866-6.8-2.91.3-.724,6.957,2.661.339-.836L337.7-348.9l.309-.719,6.962,2.331.273-.86-7.021-2.331.254-.725,7.118,1.963.195-.739-4.912-1.7.191-.587,4.892,1.1c.76-1.22.083-1.511-.873-1.712-1.933-.407-3.857-.858-5.785-1.291l.135-.764,7.2,1.356.16-.865-7.2-1.408.162-.718q1.845.253,3.689.506,1.751.244,3.5.493l.132-.819-7.237-1.217.125-.659,7.3.675.109-.825-7.268-.8.11-.755,7.2.423.089-.893-7.354-.417.031-.816h7.331l.006-.707-5.036-.33.05-.713c.993,0,1.991.061,2.977-.019.818-.066,2.223.54,1.891-1.492H340.18l-.029-.557,7.328-.566-.092-.893-7.339.52-.022-.711,7.285-.958-.1-.858-7.316.857-.092-.784,7.287-1.174-.131-.849-7.31,1.106-.116-.724,7.18-1.5-.1-.807-7.3,1.328-.145-.689,7.158-1.841-.194-.749-5.09,1.043-.137-.714a27.973,27.973,0,0,0,3.189-.939,6.335,6.335,0,0,0,1.479-1.255,5.992,5.992,0,0,0-1.784-.125c-1.242.293-2.439.769-3.664,1.136-.587.176-1.2.275-1.8.409l-.189-.694,6.86-2.332-.289-.9L337.8-376.72l-.273-.789,6.854-2.674-.265-.779-6.937,2.579-.292-.671,6.71-2.953-.278-.783-6.859,2.858-.31-.689,6.633-3.22-.377-.784-6.681,3.189-.355-.681,6.518-3.534-.415-.772-4.581,2.356-.376-.628,4.453-2.781c-1.714-1.923-2.56.23-3.593.645a23.267,23.267,0,0,0-3.491,2.129l-.409-.669,6.055-4.173-.435-.688-6.208,4.073-.435-.626Z" transform="translate(-7.393 -0.788)" fill="blue"/>
    <path id="Path_383" data-name="Path 383" d="M267.243-360.739a34.585,34.585,0,0,1,34.292-34.683,34.671,34.671,0,0,1,35.13,34.661c.06,18.856-15.454,34.627-34.142,34.71C282.815-325.964,267.326-341.194,267.243-360.739Zm12.471.01a22.27,22.27,0,0,0,22.241,22.247A22.4,22.4,0,0,0,324.2-360.774a22.321,22.321,0,0,0-22.285-22.217A22.222,22.222,0,0,0,279.714-360.729Z" transform="translate(-9.627 -3.036)" fill="blue"/>
    <path id="Path_384" data-name="Path 384" d="M282.422-359.228A21.062,21.062,0,0,1,303.591-380.3a21.288,21.288,0,0,1,21.178,21.163,21.314,21.314,0,0,1-21.365,21.2A21.142,21.142,0,0,1,282.422-359.228Zm21.286-19.93A19.93,19.93,0,0,0,283.5-359.143,19.968,19.968,0,0,0,303.291-339.1a19.981,19.981,0,0,0,20.313-19.92A19.964,19.964,0,0,0,303.708-379.158Z" transform="translate(-11.247 -4.65)" fill="blue"/>
    <path id="Path_385" data-name="Path 385" d="M284.966-358.887a18.694,18.694,0,0,1,19.127-18.854,18.909,18.909,0,0,1,18.679,19,18.992,18.992,0,0,1-19.119,18.784A18.782,18.782,0,0,1,284.966-358.887Zm26.618-.018a7.709,7.709,0,0,0-7.863-7.714,7.829,7.829,0,0,0-7.744,7.7,7.813,7.813,0,0,0,7.829,7.8A7.652,7.652,0,0,0,311.584-358.9Z" transform="translate(-11.518 -4.924)" fill="blue"/>
    <path id="Path_386" data-name="Path 386" d="M299.6-357.3a5.591,5.591,0,0,1,5.786-5.807,5.786,5.786,0,0,1,5.871,5.806,5.843,5.843,0,0,1-5.871,5.833A5.647,5.647,0,0,1,299.6-357.3Z" transform="translate(-13.08 -6.485)" fill="blue"/>
  </g>
</svg>
