<svg xmlns="http://www.w3.org/2000/svg" width="30.265" height="23.54" viewBox="0 0 30.265 23.54">
  <path id="Icon_awesome-credit-card" data-name="Icon awesome-credit-card" d="M0,23.267A2.523,2.523,0,0,0,2.522,25.79H27.743a2.523,2.523,0,0,0,2.522-2.522V14.02H0Zm10.088-3.573a.632.632,0,0,1,.631-.631h7.146a.632.632,0,0,1,.631.631v2.1a.632.632,0,0,1-.631.631H10.719a.632.632,0,0,1-.631-.631Zm-6.726,0a.632.632,0,0,1,.631-.631H7.776a.632.632,0,0,1,.631.631v2.1a.632.632,0,0,1-.631.631H3.993a.632.632,0,0,1-.631-.631Zm26.9-14.922V7.294H0V4.772A2.523,2.523,0,0,1,2.522,2.25H27.743A2.523,2.523,0,0,1,30.265,4.772Z" transform="translate(0 -2.25)" fill="#fff"/>
</svg>
