
<svg xmlns="http://www.w3.org/2000/svg" width="22.735" height="19.421" viewBox="0 0 22.735 19.421">
  <g id="Icon_ionic-ios-sync" data-name="Icon ionic-ios-sync" transform="translate(-1.127 -3.586)">
    <path id="Path_371" data-name="Path 371" d="M25.039,13.348a.64.64,0,0,0-.909,0l-.616.616a9.738,9.738,0,0,0-3.093-7.816,9.663,9.663,0,0,0-13.429.3A9.754,9.754,0,0,0,5.4,8.569a.68.68,0,0,0-.057.526.67.67,0,0,0,.341.4.678.678,0,0,0,.3.071.67.67,0,0,0,.587-.346A8.313,8.313,0,0,1,19.753,7.375a8.352,8.352,0,0,1,2.387,6.83l-.9-.876a.629.629,0,0,0-.886,0,.629.629,0,0,0,0,.891l2.027,2.032a.469.469,0,0,0,.663,0l1.994-2A.648.648,0,0,0,25.039,13.348Z" transform="translate(-1.367)" fill="blue"/>
    <path id="Path_372" data-name="Path 372" d="M20.669,20.277a.678.678,0,0,0-.3-.071.67.67,0,0,0-.587.346A8.324,8.324,0,0,1,6.6,22.4a8.4,8.4,0,0,1-2.383-6.816l.872.876a.606.606,0,0,0,.853,0L6,16.4a.6.6,0,0,0,0-.848L3.968,13.518a.469.469,0,0,0-.663,0l-1.989,2a.643.643,0,1,0,.909.909l.616-.621a9.857,9.857,0,0,0,.426,3.624A9.667,9.667,0,0,0,12.494,26.2a9.686,9.686,0,0,0,3.643-.711,9.567,9.567,0,0,0,3.2-2.136,9.672,9.672,0,0,0,1.62-2.15.667.667,0,0,0-.289-.928Z" transform="translate(0 -3.196)" fill="blue"/>
  </g>
</svg>
