<svg xmlns="http://www.w3.org/2000/svg" width="22.035" height="17.628" viewBox="0 0 22.035 17.628">
  <path id="Icon_awesome-eye-slash" data-name="Icon awesome-eye-slash" d="M11.017,13.772A4.939,4.939,0,0,1,6.1,9.189L2.486,6.4A11.475,11.475,0,0,0,1.222,8.311a1.114,1.114,0,0,0,0,1,11.043,11.043,0,0,0,9.8,6.108,10.694,10.694,0,0,0,2.682-.36l-1.787-1.382a4.962,4.962,0,0,1-.9.09Zm10.8,2L18.016,12.83a11.4,11.4,0,0,0,2.8-3.514,1.114,1.114,0,0,0,0-1,11.043,11.043,0,0,0-9.8-6.108A10.609,10.609,0,0,0,5.945,3.5L1.565.116a.551.551,0,0,0-.773.1l-.676.87a.551.551,0,0,0,.1.773L20.47,17.512a.551.551,0,0,0,.773-.1l.676-.87a.551.551,0,0,0-.1-.773ZM15.5,10.883,14.144,9.837a3.262,3.262,0,0,0-4-4.2,1.641,1.641,0,0,1,.321.971,1.606,1.606,0,0,1-.053.344L7.879,5a4.9,4.9,0,0,1,3.138-1.14,4.955,4.955,0,0,1,4.958,4.958,4.84,4.84,0,0,1-.479,2.07Z" transform="translate(0 0)" fill="blue"/>
</svg>
