<svg xmlns="http://www.w3.org/2000/svg" width="94.134" height="13.083" viewBox="0 0 94.134 13.083">
  <g id="Group_414" data-name="Group 414" transform="translate(-177.051 368.891)">
    <path id="Path_374" data-name="Path 374" d="M275.7-273.663h3.81v12.98c-1.258,0-2.533.02-3.806-.022-.189-.006-.412-.279-.546-.478-1.3-1.939-2.579-3.889-3.99-6.026v6.479h-3.881v-13c1.288,0,2.542-.029,3.792.026.233.011.506.327.667.565,1.158,1.72,2.291,3.457,3.433,5.187.122.185.26.361.52.72Z" transform="translate(-57.192 -95.157)" fill="blue"/>
    <path id="Path_375" data-name="Path 375" d="M315.5-273.642v3.779c-.338.015-.64.039-.943.04-1.734,0-3.469-.01-5.2.011a6.12,6.12,0,0,0-1.07.2l.008.332c.52.071,1.039.152,1.561.213a20.635,20.635,0,0,1,3.634.452,3.875,3.875,0,0,1,2.676,3.788,4.165,4.165,0,0,1-2.867,3.851,4.34,4.34,0,0,1-1.3.3c-2.309.029-4.617.014-7,.014v-3.748c2.419-.22,4.846.216,7.216-.249l.023-.35a5.959,5.959,0,0,0-.91-.2c-1.021-.061-2.053-.02-3.065-.144a4.188,4.188,0,0,1-3.892-4.2,4.179,4.179,0,0,1,4.057-4.047c2.147-.129,4.306-.067,6.46-.086C315.07-273.689,315.249-273.661,315.5-273.642Z" transform="translate(-80.698 -95.187)" fill="blue"/>
    <path id="Path_376" data-name="Path 376" d="M220.526-260.641a6.491,6.491,0,0,1-6.539-6.558,6.513,6.513,0,0,1,6.537-6.5,6.554,6.554,0,0,1,6.552,6.569A6.525,6.525,0,0,1,220.526-260.641Zm.013-9.186a2.748,2.748,0,0,0-2.716,2.606,2.775,2.775,0,0,0,2.753,2.749,2.784,2.784,0,0,0,2.638-2.706A2.742,2.742,0,0,0,220.539-269.827Z" transform="translate(-23.41 -95.182)" fill="blue"/>
    <path id="Path_377" data-name="Path 377" d="M336.492-260.654c.416-1.115.79-2.116,1.163-3.117,1.145-3.075,2.3-6.144,3.42-9.228a.9.9,0,0,1,1.067-.728c1.021.064,2.05-.01,3.073.038a.9.9,0,0,1,.676.431c1.539,4.046,3.046,8.1,4.555,12.161a2.687,2.687,0,0,1,.074.441c-1.173,0-2.3.024-3.422-.023-.195-.008-.461-.283-.551-.5-.581-1.367-.568-1.372-2.049-1.372-.868,0-1.737.038-2.6-.013a.921.921,0,0,0-1.088.728c-.4,1.186-.43,1.176-1.679,1.178Zm7.061-8.488-1.3,3.51h2.593Z" transform="translate(-101.054 -95.159)" fill="blue"/>
    <path id="Path_378" data-name="Path 378" d="M417.643-265.63h-5.585v2.162h5.595v2.861h-9.491v-12.969h9.5v2.873h-5.621v2.141h5.6Z" transform="translate(-146.478 -95.257)" fill="blue"/>
    <path id="Path_379" data-name="Path 379" d="M189.275-270.28c-1.05.514-2.094,1.052-3.168,1.519-.157.068-.5-.165-.694-.33a2.582,2.582,0,0,0-3.059-.408,2.6,2.6,0,0,0-1.405,2.672,2.691,2.691,0,0,0,2.09,2.292,2.41,2.41,0,0,0,2.378-.707.745.745,0,0,1,1.073-.144c.9.477,1.819.9,2.722,1.344-.726,2.155-3.848,3.751-6.484,3.372a6.494,6.494,0,0,1-5.668-6.356,6.476,6.476,0,0,1,4.957-6.461A6.435,6.435,0,0,1,189.275-270.28Z" transform="translate(0 -95.193)" fill="blue"/>
    <path id="Path_380" data-name="Path 380" d="M378.576-273.681c3.06,0,6.051-.006,9.043.015.168,0,.474.211.481.336.043.83.022,1.663.022,2.563h-5.669v2.173h5.2v2.887h-5.245v5.019h-3.831Z" transform="translate(-127.727 -95.19)" fill="blue"/>
    <path id="Path_381" data-name="Path 381" d="M253.241-260.566v-12.945h3.794v12.945Z" transform="translate(-48.29 -95.299)" fill="blue"/>
  </g>
</svg>
