<svg xmlns="http://www.w3.org/2000/svg" width="63.852" height="106.385" viewBox="0 0 63.852 106.385">
  <g id="Group_473" data-name="Group 473" transform="translate(0 0)">
    <g id="Group_471" data-name="Group 471" transform="translate(30.852 60.807) rotate(9)">
      <path id="Path_453" data-name="Path 453" d="M333.6,337.188l7.779,7.841,6.674,6.723h11.588V313.561l-.431-1.9-32.97,18.112.261.262Z" transform="translate(-326.117 -310.918)" fill="#009de5"/>
      <path id="Path_454" data-name="Path 454" d="M360.111,346.624a71.606,71.606,0,0,1-33.139,5.783l7.1,7.154a79.638,79.638,0,0,0,26.042-3.252Z" transform="translate(-326.581 -333.291)" fill="#fde2d3"/>
      <path id="Path_455" data-name="Path 455" d="M377.59,403.591a80.481,80.481,0,0,0,8.957-1.7V392.67a71.446,71.446,0,0,1-18.262,4.2l6.674,6.723Z" transform="translate(-353.018 -362.756)" fill="#fde2d3"/>
      <path id="Path_456" data-name="Path 456" d="M333.605,354.984l7.779,7.841,6.674,6.723h7.569l-.127-.18c-6.527-9.284-12.063-19.007-14.514-29.9l-14.74,8.1.261.261Z" transform="translate(-326.117 -328.713)" fill="#b7d5e6" style="mix-blend-mode: multiply;isolation: isolate"/>
      <path id="Path_457" data-name="Path 457" d="M358.986,310.341c1.133,2.063-5.329,7.79-14.433,12.791s-17.4,7.384-18.537,5.321,5.328-7.79,14.432-12.792S357.852,308.278,358.986,310.341Z" transform="translate(-325.888 -309.598)" fill="#006db1"/>
      <path id="Path_458" data-name="Path 458" d="M339.621,338.485a57.757,57.757,0,0,0,13.721-5.686,60.124,60.124,0,0,0,11.706-8.094C361.65,324.92,350.695,325.866,339.621,338.485Z" transform="translate(-334.676 -319.265)" fill="blue" style="mix-blend-mode: multiply;isolation: isolate"/>
      <path id="Path_459" data-name="Path 459" d="M417.784,314.22l-.348-1.532a63.658,63.658,0,0,0,.348,15.687Z" transform="translate(-384.255 -311.575)" fill="#fff" style="mix-blend-mode: soft-light;isolation: isolate"/>
    </g>
    <g id="Group_472" data-name="Group 472" transform="translate(0 0)">
      <path id="Path_460" data-name="Path 460" d="M373.186,151.363s-5.291-.622-7.576,3.847c-1.04,2.035-2.645-1.138-1.508-2.746a6.091,6.091,0,0,1,5.756-2.964C372.831,149.585,373.186,151.363,373.186,151.363Z" transform="translate(-322.64 -143.97)" fill="blue"/>
      <g id="Group_458" data-name="Group 458" transform="translate(20.854 10.195)">
        <path id="Path_461" data-name="Path 461" d="M339.507,277.292c2.284-1.643.116-5.2-.264-5.891a4.448,4.448,0,0,1-3.7,4.869c-4.656,1.112-10.668,1.094-10.011,5.133a6.26,6.26,0,0,0,1.448,2.712l.031.055a.213.213,0,0,1-.012-.033,7.237,7.237,0,0,0,1.442,1.337c2.936,1.929,6.84,2.149,10.037,3.472,4,1.653,5.995,5.425,2.443,8.624-.17.152,1.451,2.262,1.311,2.388,3.56-3.206,1.13-6.957-1.045-10.2-2.029-3.028-5.72-3.869-9-4.766a16.181,16.181,0,0,1-5.38-2.106C327.267,280.141,337.223,278.935,339.507,277.292Z" transform="translate(-319.028 -232.15)" fill="#0404bf"/>
        <path id="Path_462" data-name="Path 462" d="M328.754,254.481s.446,1.258-1.346,1.962c-2.777,1.09-5.534,2.233-8.305,3.34-2.307.92-5.423,1.4-7.16,3.28-.821.887.411,3.846.411,3.846a2.478,2.478,0,0,1,1.319-1.788,19.815,19.815,0,0,1,4.371-2.033c3.92-1.3,6.761-2.735,10.612-4.228C330.839,257.608,328.754,254.481,328.754,254.481Z" transform="translate(-310.186 -221.345)" fill="#0404bf"/>
        <path id="Path_463" data-name="Path 463" d="M309.794,164.849c.243-.373-1.536-2.045-1.312-2.388-2.75,4.212,1.305,9.49,4.132,12.614.889.983,1.837,1.91,2.727,2.891a20.868,20.868,0,0,1,1.96,3.428c1.038,2.974.946,6.543-1.628,8.608-.139.111,1.3,1.964,1.189,2.05,4.551-3.651,1.448-9.518-.825-13.558C313.635,174.222,306.227,170.312,309.794,164.849Z" transform="translate(-307.567 -162.461)" fill="#0404bf"/>
        <path id="Path_464" data-name="Path 464" d="M332.32,240.185a6.479,6.479,0,0,0-.951-2.051c-.072-.131-.162-.269-.138-.207-.782-1.077-1.868-1.171-3.281-.986-2.813.368-7.722,3.632-10.645,2.09.3-2.345,2.606-2.527,4.97-4.124a5.547,5.547,0,0,0,2.311-5.476c-1.887,4.035-9.9,5.459-8.369,8.662l-.03-.036s.858,1.569,1.211,2.05a4.978,4.978,0,0,0,4.233,1.629c2.244-.323,7.064-3.528,9.732-2.48C331.817,239.311,332.32,240.185,332.32,240.185Z" transform="translate(-312.979 -205.315)" fill="blue"/>
        <path id="Path_465" data-name="Path 465" d="M329.519,265.313c-4.968-5.237-9.693,3.835-14.432,6.391-1.812.978-3.234-1.409-3.356-2.462a4.555,4.555,0,0,0,.579,3.574c.755,1.375,2.939,2.672,4.2,1.525,3.691-3.351,10.016-10.623,13.713-7.29a4.749,4.749,0,0,1,.978,1.22A10.686,10.686,0,0,0,329.519,265.313Z" transform="translate(-310.142 -227.251)" fill="blue"/>
      </g>
      <path id="Path_469" data-name="Path 469" d="M260.136,232.943c-2.68,2.411-7.86,2.919-10.481.162.6.633.7,1.748,1.312,2.388,2.62,2.757,7.8,2.249,10.48-.161C261.618,235.179,260,233.068,260.136,232.943Z" transform="translate(-249.655 -197.368)" fill="#e33e20"/>
      <path id="Path_470" data-name="Path 470" d="M348.736,134.152a5.913,5.913,0,0,0-5.2,2.234c-.241.35,1.533,2.069,1.313,2.388a5.91,5.91,0,0,1,5.2-2.233,7.209,7.209,0,0,1-.644-1.2C349.343,135.229,348.868,134.154,348.736,134.152Z" transform="translate(-309.716 -134.151)" fill="#e33e20"/>
      <path id="Path_471" data-name="Path 471" d="M264.536,191.332c-1.8.5-3.9.678-5.466-.521.265.2.486.913.644,1.2a4.265,4.265,0,0,0,.668,1.188c1.568,1.2,3.666,1.025,5.466.521C265.669,193.77,264.753,191.271,264.536,191.332Z" transform="translate(-255.68 -170.408)" fill="#e33e20"/>
    </g>
  </g>
</svg>
