<svg xmlns="http://www.w3.org/2000/svg" width="27.051" height="27.051" viewBox="0 0 27.051 27.051">
  <g id="Icon_feather-copy" data-name="Icon feather-copy" transform="translate(-2 -2)">
    <path id="Path_639" data-name="Path 639" d="M16.005,13.5H27.278a2.505,2.505,0,0,1,2.505,2.505V27.278a2.505,2.505,0,0,1-2.505,2.505H16.005A2.505,2.505,0,0,1,13.5,27.278V16.005A2.505,2.505,0,0,1,16.005,13.5Z" transform="translate(-1.732 -1.732)" fill="none" stroke="blue" stroke-linecap="round" stroke-linejoin="round" stroke-width="2"/>
    <path id="Path_640" data-name="Path 640" d="M6.758,19.283H5.505A2.505,2.505,0,0,1,3,16.778V5.505A2.505,2.505,0,0,1,5.505,3H16.778a2.505,2.505,0,0,1,2.505,2.505V6.758" fill="none" stroke="blue" stroke-linecap="round" stroke-linejoin="round" stroke-width="2"/>
  </g>
</svg>
