<?xml version="1.0" encoding="UTF-8"?>
<svg xmlns="http://www.w3.org/2000/svg" xmlns:xlink="http://www.w3.org/1999/xlink" width="25px" height="25px" viewBox="0 0 25 25" version="1.1">
<g id="surface1">
<path style=" stroke:none;fill-rule:nonzero;fill:rgb(0%,0%,0%);fill-opacity:1;" d="M 9.375 12.238281 C 8.65625 12.238281 8.074219 12.824219 8.074219 13.542969 C 8.074219 14.261719 8.65625 14.84375 9.375 14.84375 C 10.09375 14.84375 10.675781 14.261719 10.675781 13.542969 C 10.675781 12.824219 10.09375 12.238281 9.375 12.238281 M 15.625 12.238281 C 14.90625 12.238281 14.324219 12.824219 14.324219 13.542969 C 14.324219 14.261719 14.90625 14.84375 15.625 14.84375 C 16.34375 14.84375 16.925781 14.261719 16.925781 13.542969 C 16.925781 12.824219 16.34375 12.238281 15.625 12.238281 M 12.5 2.082031 C 6.746094 2.082031 2.082031 6.746094 2.082031 12.5 C 2.082031 18.253906 6.746094 22.917969 12.5 22.917969 C 18.253906 22.917969 22.917969 18.253906 22.917969 12.5 C 22.917969 6.746094 18.253906 2.082031 12.5 2.082031 M 12.5 20.832031 C 7.90625 20.832031 4.167969 17.09375 4.167969 12.5 C 4.167969 12.199219 4.167969 11.894531 4.21875 11.605469 C 6.675781 10.511719 8.625 8.5 9.644531 6.011719 C 11.53125 8.675781 14.636719 10.417969 18.144531 10.417969 C 18.957031 10.417969 19.738281 10.324219 20.488281 10.144531 C 20.707031 10.886719 20.832031 11.675781 20.832031 12.5 C 20.832031 17.09375 17.09375 20.832031 12.5 20.832031 Z M 12.5 20.832031 "/>
</g>
</svg>
