<svg xmlns="http://www.w3.org/2000/svg" width="26.68" height="26.68" viewBox="0 0 26.68 26.68">
  <path id="Icon_material-face" data-name="Icon material-face" d="M12.338,16.006a1.667,1.667,0,1,0,1.667,1.667A1.668,1.668,0,0,0,12.338,16.006Zm8,0a1.667,1.667,0,1,0,1.667,1.667A1.668,1.668,0,0,0,20.342,16.006ZM16.34,3A13.34,13.34,0,1,0,29.68,16.34,13.345,13.345,0,0,0,16.34,3Zm0,24.012A10.686,10.686,0,0,1,5.668,16.34a10.816,10.816,0,0,1,.067-1.147,13.422,13.422,0,0,0,6.95-7.163A13.305,13.305,0,0,0,23.57,13.672a13.02,13.02,0,0,0,3-.347A10.656,10.656,0,0,1,16.34,27.012Z" transform="translate(-3 -3)" opacity="0.53"/>
</svg>
