<svg xmlns="http://www.w3.org/2000/svg" width="26.669" height="26.67" viewBox="0 0 26.669 26.67">
  <path id="Icon_awesome-fingerprint" data-name="Icon awesome-fingerprint" d="M13.341,12.812a1.25,1.25,0,0,0-1.25,1.25,38.089,38.089,0,0,1-1.443,11.02,1.25,1.25,0,1,0,2.407.676,40.316,40.316,0,0,0,1.536-11.7,1.249,1.249,0,0,0-1.25-1.25ZM13.3,8.555A5.21,5.21,0,0,0,7.923,13.82a34.175,34.175,0,0,1-.7,7.425,1.25,1.25,0,1,0,2.448.506,36.673,36.673,0,0,0,.749-7.971,2.714,2.714,0,0,1,2.836-2.726,3.015,3.015,0,0,1,3,2.889,41.877,41.877,0,0,1-.553,7.477,1.25,1.25,0,1,0,2.466.407,44.432,44.432,0,0,0,.587-7.923A5.534,5.534,0,0,0,13.3,8.555ZM7.531,7.524a1.251,1.251,0,0,0-1.759.181A9.034,9.034,0,0,0,3.754,13.54a30.251,30.251,0,0,1-.475,5.837,1.251,1.251,0,0,0,2.461.444,32.763,32.763,0,0,0,.514-6.32A6.438,6.438,0,0,1,7.713,9.283a1.251,1.251,0,0,0-.182-1.759Zm5.7-3.247a9.311,9.311,0,0,0-2.385.259,1.25,1.25,0,0,0,.576,2.434A7.476,7.476,0,0,1,13.2,6.778a7.291,7.291,0,0,1,7.234,7.01,45.9,45.9,0,0,1-.291,5.919,1.25,1.25,0,0,0,2.484.285,48.394,48.394,0,0,0,.307-6.243A9.81,9.81,0,0,0,13.233,4.278ZM26.363,10.6a1.25,1.25,0,1,0-2.441.539,12.989,12.989,0,0,1,.245,3.209,1.25,1.25,0,0,0,1.24,1.261h.01a1.25,1.25,0,0,0,1.25-1.24,15.479,15.479,0,0,0-.3-3.768Zm-2.09-4.726A13.856,13.856,0,0,0,13.169,0a13.047,13.047,0,0,0-9.5,3.8A12.423,12.423,0,0,0,.007,12.848L0,13.966a1.249,1.249,0,0,0,1.213,1.286h.038A1.251,1.251,0,0,0,2.5,14.04l.008-1.231A9.937,9.937,0,0,1,5.44,5.568,10.556,10.556,0,0,1,13.132,2.5a11.348,11.348,0,0,1,9.1,4.813,1.249,1.249,0,1,0,2.045-1.436Z" transform="translate(-0.001)" fill="#fff"/>
</svg>
