<svg xmlns="http://www.w3.org/2000/svg" width="68" height="68" viewBox="0 0 68 68">
  <g id="Group_505" data-name="Group 505" transform="translate(-180 -583)">
    <rect id="Rectangle_169" data-name="Rectangle 169" width="68" height="68" rx="9" transform="translate(180 583)" fill="#1c1c1c"/>
    <path id="Icon_awesome-fingerprint" data-name="Icon awesome-fingerprint" d="M23.006,22.094A2.156,2.156,0,0,0,20.85,24.25a65.684,65.684,0,0,1-2.488,19,2.156,2.156,0,1,0,4.151,1.165A69.523,69.523,0,0,0,25.161,24.25a2.154,2.154,0,0,0-2.155-2.156Zm-.077-7.342a8.985,8.985,0,0,0-9.267,9.081,58.934,58.934,0,0,1-1.2,12.8,2.156,2.156,0,0,0,4.222.873,63.241,63.241,0,0,0,1.291-13.745,4.68,4.68,0,0,1,4.891-4.7,5.2,5.2,0,0,1,5.176,4.983,72.216,72.216,0,0,1-.953,12.895,2.155,2.155,0,1,0,4.252.7,76.621,76.621,0,0,0,1.012-13.664A9.543,9.543,0,0,0,22.929,14.752Zm-9.943-1.777a2.158,2.158,0,0,0-3.033.313A15.58,15.58,0,0,0,6.473,23.349a52.166,52.166,0,0,1-.818,10.065A2.156,2.156,0,0,0,9.9,34.18a56.5,56.5,0,0,0,.886-10.9A11.1,11.1,0,0,1,13.3,16.008a2.157,2.157,0,0,0-.313-3.033Zm9.833-5.6a16.056,16.056,0,0,0-4.112.446,2.156,2.156,0,0,0,.993,4.2,12.892,12.892,0,0,1,3.054-.331A12.574,12.574,0,0,1,35.23,23.777a79.144,79.144,0,0,1-.5,10.207,2.156,2.156,0,0,0,4.284.491,83.454,83.454,0,0,0,.529-10.766A16.917,16.917,0,0,0,22.819,7.377ZM45.462,18.286a2.156,2.156,0,1,0-4.21.929,22.4,22.4,0,0,1,.422,5.533,2.155,2.155,0,0,0,2.138,2.174h.018a2.156,2.156,0,0,0,2.156-2.138,26.693,26.693,0,0,0-.524-6.5Zm-3.6-8.149A23.9,23.9,0,0,0,22.709,0a22.5,22.5,0,0,0-16.38,6.55,21.423,21.423,0,0,0-6.317,15.6L0,24.084A2.154,2.154,0,0,0,2.093,26.3c.021,0,.043,0,.065,0a2.157,2.157,0,0,0,2.153-2.093l.014-2.124A17.137,17.137,0,0,1,9.38,9.6,18.2,18.2,0,0,1,22.646,4.314a19.57,19.57,0,0,1,15.686,8.3,2.155,2.155,0,1,0,3.527-2.477Z" transform="translate(190.669 593.669)" fill="#fff"/>
  </g>
</svg>
