<svg xmlns="http://www.w3.org/2000/svg" xmlns:xlink="http://www.w3.org/1999/xlink" width="53.437" height="65.251" viewBox="0 0 53.437 65.251">
  <defs>
    <filter id="Path_4008" x="0" y="0" width="53.437" height="65.251" filterUnits="userSpaceOnUse">
      <feOffset dy="3" input="SourceAlpha"/>
      <feGaussianBlur stdDeviation="3" result="blur"/>
      <feFlood flood-opacity="0.161"/>
      <feComposite operator="in" in2="blur"/>
      <feComposite in="SourceGraphic"/>
    </filter>
  </defs>
  <g transform="matrix(1, 0, 0, 1, 0, 0)" filter="url(#Path_4008)">
    <path id="Path_4008-2" data-name="Path 4008" d="M589.489,326.551a4.433,4.433,0,0,0,.571-.949c.057-.13.108-.263.153-.4.007-.022.017-.043.023-.064a4.777,4.777,0,0,0,.2-1.317V303.148a4.428,4.428,0,0,0-.167-1.187c-.012-.043-.02-.087-.033-.129-.007-.022-.016-.042-.024-.064q-.067-.2-.153-.4a4.447,4.447,0,0,0-.57-.948c-.023-.029-.043-.06-.066-.088-.045-.054-.1-.1-.143-.157s-.093-.107-.143-.157c-.03-.03-.064-.057-.095-.086-.072-.068-.144-.137-.22-.2l-.007-.005c-.108-.088-.219-.172-.334-.25-.039-.026-.08-.048-.12-.073-.081-.051-.161-.1-.245-.149-.046-.025-.1-.045-.142-.068-.081-.04-.162-.083-.246-.118s-.151-.056-.227-.083c-.06-.022-.119-.047-.18-.066s-.145-.038-.218-.056-.136-.039-.206-.053-.116-.017-.174-.027c-.088-.015-.176-.032-.266-.041-.03,0-.062,0-.092,0-.119-.01-.238-.019-.36-.019h-1.477v-5.906A11.812,11.812,0,0,0,572.719,281h0a11.812,11.812,0,0,0-11.813,11.813v5.906h-1.477c-.114,0-.227.009-.339.017-.037,0-.076,0-.114.006-.08.008-.157.023-.235.036s-.138.018-.2.031c-.041.008-.079.021-.12.031-.1.024-.205.048-.3.079-.032.01-.062.024-.094.034a4.422,4.422,0,0,0-.7.3c-.061.033-.118.072-.178.108a4.447,4.447,0,0,0-.528.369c-.022.018-.042.038-.063.057a4.461,4.461,0,0,0-.537.543A4.555,4.555,0,0,0,555,303.148v20.673a4.43,4.43,0,0,0,.073.775q.037.21.094.412c.012.042.02.087.033.129.007.022.016.043.023.064a4.454,4.454,0,0,0,.312.73c.007.013.016.024.023.037.063.112.128.222.2.328.039.057.083.111.125.167s.084.118.13.174.087.095.13.143.1.117.156.172.125.115.189.172c.042.037.082.078.125.114a4.439,4.439,0,0,0,1.033.635c.02.009.039.02.06.029.094.04.19.072.287.105.04.014.079.031.119.044.1.031.2.054.3.079.04.01.079.022.12.031.125.026.253.044.382.058l.057.009a4.53,4.53,0,0,0,.453.023h26.578c.121,0,.241-.009.36-.019.031,0,.062,0,.092,0a4.4,4.4,0,0,0,.743-.146c.04-.011.082-.019.121-.031.062-.019.12-.044.18-.066.076-.028.153-.052.226-.083s.164-.078.245-.118c.047-.023.1-.044.142-.068.061-.033.119-.072.178-.108a4.47,4.47,0,0,0,.528-.369c.043-.036.083-.076.125-.114.064-.057.129-.112.189-.172s.1-.115.156-.172.089-.093.13-.143C589.447,326.61,589.467,326.579,589.489,326.551Zm-24.646-33.738a7.875,7.875,0,1,1,15.75,0v5.906h-15.75Z" transform="translate(-546 -275)" fill="#00e6c3"/>
  </g>
</svg>
