<svg xmlns="http://www.w3.org/2000/svg" width="40" height="40" viewBox="0 0 40 40">
  <g id="Group_488" data-name="Group 488" transform="translate(-19 -344)">
    <rect id="Rectangle_155" data-name="Rectangle 155" width="40" height="40" rx="7" transform="translate(19 344)" fill="#c27847"/>
    <path id="Icon_awesome-globe-americas" data-name="Icon awesome-globe-americas" d="M10.636.563A10.707,10.707,0,0,0,0,11.339,10.707,10.707,0,0,0,10.636,22.115,10.707,10.707,0,0,0,21.271,11.339,10.707,10.707,0,0,0,10.636.563ZM14.165,16.1l-.485.49a1.042,1.042,0,0,0-.265.465c-.065.246-.117.495-.2.733l-.746,2.036a8.463,8.463,0,0,1-1.829.2V18.84a3.275,3.275,0,0,0-.971-2.227,1.4,1.4,0,0,1-.4-.983V14.239a1.389,1.389,0,0,0-.706-1.215c-.616-.345-1.493-.828-2.093-1.135a6.18,6.18,0,0,1-1.357-.945l-.034-.031a4.97,4.97,0,0,1-.775-.9c-.4-.6-1.058-1.583-1.483-2.222A8.68,8.68,0,0,1,7.24,3.361l1.03.522a.687.687,0,0,0,.993-.622V2.77a8.462,8.462,0,0,1,1.046-.105l1.214,1.23a.7.7,0,0,1,0,.983l-.2.2-.443.449a.351.351,0,0,0,0,.491l.2.2a.351.351,0,0,1,0,.491l-.343.348a.341.341,0,0,1-.243.1h-.386a.341.341,0,0,0-.239.1l-.425.419a.351.351,0,0,0-.068.4l.669,1.355a.348.348,0,0,1-.307.5H9.5a.34.34,0,0,1-.225-.085l-.4-.35a.68.68,0,0,0-.667-.135l-1.337.451a.522.522,0,0,0-.067.957l.475.241a2.873,2.873,0,0,0,1.3.311c.451,0,.969,1.186,1.372,1.391h2.863a1.364,1.364,0,0,1,.971.407l.587.595a1.334,1.334,0,0,1,.383.937,2.036,2.036,0,0,1-.588,1.433Zm3.719-3.969a1.03,1.03,0,0,1-.607-.433l-.771-1.172a1.053,1.053,0,0,1,0-1.157l.84-1.277a1.033,1.033,0,0,1,.4-.354l.557-.282a8.52,8.52,0,0,1,.836,4.992Z" transform="translate(28.604 352.76)" fill="#fff"/>
  </g>
</svg>
