<svg xmlns="http://www.w3.org/2000/svg" width="83.884" height="164.039" viewBox="0 0 83.884 164.039">
  <g id="Group_502" data-name="Group 502" transform="translate(-9930.693 -3955.336)">
    <path id="Path_531" data-name="Path 531" d="M1170.741,1507.291c-2.656-.58-6.584-4.271-8.513-7.5l.6-.692,7.7,5.48A8.14,8.14,0,0,0,1170.741,1507.291Z" transform="translate(8775.052 2599.876)" fill="#f5ae9e"/>
    <path id="Path_532" data-name="Path 532" d="M1118.556,1510.415c.329-.306,4.476-4.265,6.456-6.108,1.98,3.369,6.183,7.273,8.851,7.628.359.048,1.392,1.291,1.572,1.679,1.333,2.878,2.5,3.638,8.3,4.274,1.67.183,3.145,3.792,2.084,6.04l-15.9-.68c-2.986-2.883-10.638-10.727-11.3-11.389a1.137,1.137,0,0,1-.457-.847A1.056,1.056,0,0,1,1118.556,1510.415Z" transform="translate(8812.538 2595.447)" fill="#789ed3"/>
    <path id="Path_533" data-name="Path 533" d="M1220.607,1161.362l-13.818,3.138c-5.207-21.3-4.7-33.507-4.7-33.507s-1.838-2.67-4.271-6.6l-3.97,10.477c-.28.748-20.423,28.593-20.423,28.593l-9.6-6.689a128.435,128.435,0,0,1,19.018-28.132s-.161-16.32.748-26.154c1.335.077,3.033.175,3.816.2.335.014,5.249.077,5.605.077,1.132,0,2.314-.028,3.516-.07.349-.007,3.383-.161,4.564-.258.35-.028,1.838-.168,2.237-.21.776-.084,1.552-.182,2.32-.294.126-.021.412-1.083.412-1.083l.622-3.18.517-.943,2.132-.308.4,1.251.482,1.5.147.461,4.627,27.021Z" transform="translate(8773.7 2942.367)" fill="#4b3584"/>
    <path id="Path_590" data-name="Path 590" d="M1471.682,563.182l.482,1.489-.433.154a2.078,2.078,0,0,0-1.251,2.356,2.157,2.157,0,0,0-2.237.881l-.664-2.055-1.377,1.02a4.325,4.325,0,0,1-6.067-.783l-.056-.07a4.329,4.329,0,0,1,1.006-6.039l4.99-3.7,12.043-18.263,14.042,18.906Z" transform="translate(8522.416 3417.169)" fill="#9bd3d5"/>
    <path id="Path_591" data-name="Path 591" d="M1257.181,800.923l-1.049-.315-3.516-1.062-1.049-.315-1.894-.573-.978,3.655-.28,1.048-.357,1.342-1.048,3.928-.748,2.8-.056.21-.189-.21c-.891-.99-1.4-2.272-2.274-3.3-1.055-1.234-2.074-2.5-3.018-3.821a37.651,37.651,0,0,0-3.505-3.751,5.371,5.371,0,0,0-2.12-1.315c-.126-.028-.259-.056-.405-.077-.361-.052-.72-.118-1.083-.167a2.893,2.893,0,0,0-.837-.011,10.358,10.358,0,0,0,.941,1.834q.924,1.785,1.845,3.572c.307.6.59,1.206.881,1.81a22.348,22.348,0,0,1,1.118,2.614c2.817,8.4,4.005,34.346,4.005,34.346l-2.125.3s-6.353-28.622-7.989-32.941-10.114-11.568-10.114-11.568a2.365,2.365,0,0,0-.65-.014c-.721.314-1.374.766-2.084,1.1-.815.388-1.661.7-2.48,1.084a9.859,9.859,0,0,0-1.048.538,11.753,11.753,0,0,0-2.614,4.264c-.161.3-.328.615-.489.937q-1.125,2.25-2.139,4.557-.231.514-.461,1.048c-.5,1.153-.992,2.341-1.475,3.516-.147.349-.286.7-.426,1.048-.161.4-.315.79-.468,1.174-.454,1.125-.887,2.259-1.328,3.39-1.016,2.656-2.222,5.328-2.97,8.073a6.172,6.172,0,0,0-.2,1.048,5.913,5.913,0,0,0,.748,3.516,6.237,6.237,0,0,0,.755,1.048,7.65,7.65,0,0,0,1.95,1.482l1.048.6,3.509,2.027.769.447,3.8,2.188s1.048.608,1.055.615c-.056.245-.119.482-.175.713-.084.343-.937,3.683-1.125,4.557a8.7,8.7,0,0,0-.2,1.048,1.227,1.227,0,0,0-.021.147s4.271.266,5.662.314c.335.014,5.249.077,5.605.077,1.132,0,2.314-.028,3.516-.07.349-.007,3.383-.161,4.564-.258.349-.028,1.838-.168,2.237-.21.776-.084,1.552-.182,2.32-.294.126-.021.412-1.083.412-1.083l.622-3.18.517-.943,1.85-.211.308,1.317.224,1.42,1.2,1.688c.161-.042.486-.172.738-.249,0,0-.668-5.426-.78-5.713,0,0-.51-11.91-.5-12.043.056-1.042.168-6.857.14-8.073,0-.287-.007-.573-.014-.867l.266.126,1.6.741,1.915.888.133.063a4.751,4.751,0,0,0,.916.322,4.7,4.7,0,0,0,3.509-.538,4.627,4.627,0,0,0,.937-.727c0-.007.112-.364.112-.364l.217-.692,1.083-3.516.328-1.048,1.083-3.516.328-1.048.475-1.545.608-1.964.321-1.048.119-.37.972-3.152.293-.93.315-1.027Zm-40.007,31.9-1.048-.587-1.048-.587-1.629-.916-.622-.349s.126-.252.356-.7c.371-.734,1.006-1.992,1.768-3.516.042-.084.084-.175.126-.259.133-.259.258-.517.391-.79.217-.426.433-.867.657-1.321.349-.713.713-1.447,1.069-2.188h.007v-.007c.168-.349.336-.692.5-1.041C1217.768,820.438,1217.167,832.25,1217.174,832.823Z" transform="translate(8740.823 3195.615)" fill="#5a8dbf"/>
    <path id="Path_592" data-name="Path 592" d="M1345.9,1070.609l-2.733,4.9c-.608.8-4.068.391-6.1-.985a24.4,24.4,0,0,1-3.376-3.8,13.737,13.737,0,0,0,.5-1.517,17.921,17.921,0,0,1,1.272-3.131,20.259,20.259,0,0,0,1.02-2.069c.587-.014,2.7-.042,3.425.035,1.265.133,2.237,1.063,3.509,1.16.524.035,1.076-.084,1.6,0,.287.042.6.209.552.475a.744.744,0,0,1-.182.287,3.909,3.909,0,0,1-2.915,1.2l2.292,1.083C1345.552,1068.673,1346.5,1069.805,1345.9,1070.609Z" transform="translate(8629.22 2969.942)" fill="#f5ae9e"/>
    <path id="Path_593" data-name="Path 593" d="M1521.7,723.191c-.832-2.2-2.586-7.332-2.586-7.332a1.063,1.063,0,0,0-1.314-.72l-.454.161a2.078,2.078,0,0,0-1.251,2.355c-.14.063-.238.1-.252.063-.5-.21-1.111.007-1.671.8-.091-.315-2.481,6.06-.475,8.541a4.309,4.309,0,0,0,1.174.881c.007,0,.007.007.014.007l.706.21,1.048.314,3.516,1.062.231.07C1521.044,728.657,1523,726.637,1521.7,723.191Z" transform="translate(8476.8 3266.693)" fill="#f5ae9e"/>
    <path id="Path_594" data-name="Path 594" d="M1534.87,758.063a2.373,2.373,0,0,1-2.195-1.643l-.888-2.509a8.508,8.508,0,0,1-1.067,1.259c.007.063-.014.783,0,1.084l.548,2.043a2.717,2.717,0,0,0,2.9,1.495,2.883,2.883,0,0,0,1.37-1.271c.056-.112-.329-.374-.3-.493A1.617,1.617,0,0,1,1534.87,758.063Z" transform="translate(8461.646 3233.674)" fill="#9bd3d5"/>
    <path id="Path_617" data-name="Path 617" d="M1233.935,800.643v1.125c.126.224.251.475.391.734.1.2.217.405.328.615l.329.636V800.79Q1234.521,800.716,1233.935,800.643Zm4.557,37.582v2.25h-3.509v-3.509h3.222c-.077-.343-.154-.692-.238-1.049h-2.984V832.4h2.174c-.077-.349-.161-.7-.238-1.048h-1.936v-3.516h1.111c-.084-.35-.168-.7-.245-1.049h-.867v-3.509h.028c-.37-1.538-.734-3.012-1.076-4.361v3.313h-3.558l.007-3.516h3.5c-.091-.364-.182-.706-.266-1.048h-3.236l.007-3.516h2.286q-.168-.587-.315-1.048h-1.971l.007-3.509h.168c-.363-.51-.769-1.027-1.2-1.545v.5h-3.516v-3.516h.769c-.629-.643-1.244-1.244-1.817-1.8v.748H1221.3v-3.362a8.57,8.57,0,0,0-1.021.538.052.052,0,0,1-.028.014v2.81h-3.516V802.81a9.871,9.871,0,0,0-1.049.538v.636h-.4a4.5,4.5,0,0,0-.762,1.048h1.165v3.516h-3.1c-.133.259-.266.531-.406.8v.014c-.035.077-.077.154-.112.231h3.62v3.509h-3.516v-2.5c-.035.07-.07.147-.1.217h-.58c-.125.259-.244.517-.363.776v1.5h-.685c-.147.342-.3.692-.454,1.048h1.139v3.516h-2.614c-.147.349-.286.7-.426,1.048h3.04v3.516h-3.509v-2.341c-.322.8-.629,1.587-.923,2.341-.042.112-.084.217-.126.329v4.228h-1.6c-.14.371-.273.72-.392,1.049h1.992v3.516h-2.88a.489.489,0,0,0-.44.294c-.021.077-.042.154-.056.231a.518.518,0,0,0,.5.524h2.88v3.516h-2.7a6.238,6.238,0,0,0,.755,1.049h1.95v1.482l1.048.6v-2.083h3.509v4.11l.769.447h3.8v2.188l1.049.608v-2.8h3.516v3.516h-3.516v-.685c-.056.238-.112.461-.168.685-.063.259-.559,2.2-.881,3.523V849.6h-.245a8.723,8.723,0,0,0-.2,1.048h5v.461c.335.014.685.021,1.048.035v-.5h4.557v-.28a7.91,7.91,0,0,1-.8-.769H1221.3v-3.509h1.615a6.11,6.11,0,0,1,.279-1.048H1221.3v-3.516h3.858a7.434,7.434,0,0,0,.475-1.048c-.014.042-.035.035-.056,0H1221.3v-3.509h3.509v.86c.1-.189.573,2.341.769,2.649h.28v-3.509h3.516v2.516s.895,1.321.971.678l.007-3.194h3.586v7.786c.028-.1,1.048.287,1.048.287v-3.516h3.509v3.516h-4.208a1.33,1.33,0,0,1,.14.14,1.452,1.452,0,0,1,.3.44.83.83,0,0,1,.028.468h3.739V849.6h-3.509v-3.11a3.453,3.453,0,0,1-.524.79c-.1.119-1.81,3.369-1.81,3.369h2.334s3.767-.329,3.893-.349l.524-.552.14-.147v-6.752C1239.267,841.65,1238.911,840.063,1238.491,838.225Zm-27.37-2.307h-3.509V832.4h3.509Zm0-4.564h-3.509v-3.516h3.509Zm0-4.564h-3.509v-3.509h3.509Zm5.613-21.758h3.516v3.516h-3.516Zm0,4.564h3.516v3.509h-3.516Zm0,4.557h3.516v3.516h-3.516Zm0,4.564h3.516v3.516h-3.516Zm-4.564-4.564h3.516v3.516h-3.516Zm0,4.564h3.516v3.516h-3.516Zm3.516,21.758h-3.516v-3.509h3.516Zm0-4.557h-3.516V832.4h2.551c-.343-.405.007-.356-.524-.482a2.592,2.592,0,0,1,.14-.566h-2.167v-3.516h3.516V826.79h-3.516v-3.509h3.516v3.509h1.049v-3.509h3.516v3.509h-2.286c0,.349-.014.7-.028,1.049h2.313v3.516h-2.355c0,.091.007.189.007.28.007.259.021.51.028.769h2.321v3.516h-3.516v-2.251a6.292,6.292,0,0,1-1.049-.51Zm1.049,4.557v-3.509h3.516v3.509Zm0,9.121v-3.509h3.516V849.6Zm8.073-13.678H1221.3V832.4h3.509Zm0-4.564H1221.3v-3.516h3.509Zm0-4.564H1221.3v-3.509h3.509Zm0-4.557H1221.3v-3.516h3.509Zm0-4.564H1221.3v-3.516h3.509Zm0-4.564H1221.3V809.6h3.509Zm0-4.557H1221.3v-3.516h3.509Zm4.564,27.371h-3.516V832.4h3.516Zm0-4.564h-3.516v-3.516h3.516Zm0-4.564h-3.516v-3.509h3.516Zm0-4.557h-3.516v-3.516h3.516Zm0-4.564h-3.516v-3.516h3.516Zm0-4.564h-3.516V809.6h3.516Zm4.564,22.813h-3.586l.007-3.516h3.579Zm0-4.564h-3.579l.007-3.516h3.572Zm0-4.564h-3.565l.007-3.509h3.558Zm7.7,9.128c.028.357.049.706.077,1.049h1.349v-1.049Zm.308,4.557q.032.556.063,1.048h1.055v-1.048Zm16.817-36.492h-.965v-1.391l-1.048-.315v1.705h-3.516v-2.768l-1.049-.314v3.082H1249.3l-.279,1.048h3.152v3.516h-3.509v-2.174l-1.048,3.928v2.8H1244.1v-3.635l-.615-.7-.035-.042-.4-.454v.272h-3.516v-3.523c-.182-.364-.371-.713-.566-1.041H1235.1c.182.342.357.692.545,1.048h2.845v3.516h-1.125c0,.007.007.007.007.014.168.37.322.713.454,1.034h.664v1.971a48.711,48.711,0,0,1,1.049,4.927v-2.341h3.516v3.516h-3.327c.056.342.1.692.161,1.048h3.166v3.516h-2.7c.042.349.084.7.119,1.048h2.579v3.509h-2.2l.1,1.049h2.1v3.516h-1.782c.035.349.063.7.091,1.048h2.39c-.028-.636-.042-1.027-.042-1.048.056-1.041.168-6.857.14-8.073,0-.287-.007-.573-.014-.867l.266.126,1.6.741h1.915v.888l.133.063a4.762,4.762,0,0,0,.915.322v-1.272h3.509v.734a4.623,4.623,0,0,0,.937-.727v-.007h.112v-4.564h1.3l.328-1.048h-1.628v-3.516h2.712l.168-.538v-.51h-2.88V809.6h3.516v1.964l.608-1.964.44-1.419v-3.145h.972v-.007l.293-.93v-.007A.5.5,0,0,0,1258.754,803.984Zm-15.7,9.121h-3.516V809.6h3.516Zm4.564,9.128H1244.1v-3.516h3.516Zm0-4.564H1244.1v-3.516h3.516Zm4.557,4.564h-3.509v-3.516h3.509Zm0-4.564h-3.509v-3.516h3.509Zm0-4.564h-3.509V809.6h3.509Zm4.564-4.557h-3.516v-3.516h3.516Z" transform="translate(8740.215 3193.946)" fill="#2d7cbb"/>
    <path id="Path_618" data-name="Path 618" d="M1348.915,842.14l-2.125.3s-6.353-28.622-7.989-32.941-10.114-11.567-10.114-11.567l1.265-.391a12.638,12.638,0,0,0,6.731,1.027,9.377,9.377,0,0,0,3.11-1.125h.014s4.222,7.737,5.1,10.351C1347.727,816.2,1348.915,842.14,1348.915,842.14Z" transform="translate(8633.475 3196.649)" fill="#f7af4d"/>
    <path id="Path_619" data-name="Path 619" d="M1295.175,605.821a2.258,2.258,0,0,1-2.719,1.111,4.161,4.161,0,0,1-1.635-1.677,9.38,9.38,0,0,1-1.055-1.88,22.794,22.794,0,0,1-5.081.727,14.168,14.168,0,0,1-7.493-1.034c1.671,1.37,2.2,3.1,2.873,4.431.629,1.258-.363,2.663-1.153,2.083a2.425,2.425,0,0,0-2.523-.51c-1.88,1.062-.028,2.991,1.2,3.963,0,0,1.062,1.838.119,2.838a5.351,5.351,0,0,1-3.823-1.1c-2.39-1.6-2.817-3.3-3.593-6.053s.315-6.885,3.054-8.038c.161-2.4,2.258-4.648,4.571-5.556a14.217,14.217,0,0,1,4.963-1.1,22.369,22.369,0,0,1,4.438.336,3.607,3.607,0,0,1,1.454-.853,4.623,4.623,0,0,1,4.6,2.16,2.689,2.689,0,0,1,.433,1.076,4.815,4.815,0,0,1,.07,1.517,8.824,8.824,0,0,1,1.79,4.2A5.208,5.208,0,0,1,1295.175,605.821Z" transform="translate(8683.356 3370.169)" fill="#c6368b"/>
    <path id="Path_620" data-name="Path 620" d="M1321.007,665.4a6.036,6.036,0,0,1-.832.259,16.645,16.645,0,0,0,1.3,3.97,9.438,9.438,0,0,1-3.117,1.125c-2.048.426-6.57-.4-7.22-1.468a51.636,51.636,0,0,0,1.042-5.291,14.26,14.26,0,0,1-2.922-2.418c.944-1-.119-2.838-.119-2.838-1.223-.971-3.075-2.9-1.2-3.963a2.425,2.425,0,0,1,2.523.51c.79.58,1.782-.825,1.153-2.083-.671-1.335-1.2-3.061-2.873-4.431a14.168,14.168,0,0,0,7.493,1.034c2.349-.217,5.228-.2,7.1-1.859a6.019,6.019,0,0,0,.734-.783,26.356,26.356,0,0,1,1.545,3.446C1327.961,656.911,1325.885,663.516,1321.007,665.4Z" transform="translate(8651.801 3324.467)" fill="#f5ae9e"/>
    <path id="Path_621" data-name="Path 621" d="M1416.82,693.948a2.154,2.154,0,0,0,2.517,1.729,1.53,1.53,0,0,0,.326-.1,13.562,13.562,0,0,0,.034-4.078,2.054,2.054,0,0,0-1.172-.108A2.177,2.177,0,0,0,1416.82,693.948Z" transform="translate(8558.551 3286.879)" fill="#ee7e94"/>
    <path id="Path_622" data-name="Path 622" d="M1410.564,678.039a.524.524,0,0,1-.515-.427l-.147-.778a.524.524,0,0,1,1.031-.2l.147.778a.524.524,0,0,1-.418.613A.533.533,0,0,1,1410.564,678.039Z" transform="translate(8564.408 3299.758)" fill="#2b2150"/>
    <path id="Path_623" data-name="Path 623" d="M1393.447,682.048a1.346,1.346,0,0,1-.635-.149.524.524,0,0,1,.489-.928c.177.095.7-.041,1.328-.477l-1.879-4.246a.524.524,0,1,1,.958-.425l1.879,4.23a1.061,1.061,0,0,1-.358,1.3A3.435,3.435,0,0,1,1393.447,682.048Z" transform="translate(8579.174 3300.355)" fill="#2b2150"/>
    <path id="Path_624" data-name="Path 624" d="M1368.225,688.5a.524.524,0,0,1-.514-.427l-.148-.778a.524.524,0,1,1,1.03-.2l.147.778a.524.524,0,0,1-.417.613A.535.535,0,0,1,1368.225,688.5Z" transform="translate(8600.419 3290.864)" fill="#2b2150"/>
    <path id="Path_625" data-name="Path 625" d="M1353.757,710.078a2.152,2.152,0,0,0,2.518,1.729,2.178,2.178,0,0,0,1.705-2.552,2.152,2.152,0,0,0-2.517-1.729A2.179,2.179,0,0,0,1353.757,710.078Z" transform="translate(8612.187 3273.16)" fill="#ee7e94"/>
    <path id="Path_626" data-name="Path 626" d="M1319.385,708.415a.35.35,0,0,1-.312-.191,2.076,2.076,0,0,0-1.073-.68.349.349,0,1,1,.2-.671,2.7,2.7,0,0,1,1.5,1.034.349.349,0,0,1-.311.508Z" transform="translate(8642.78 3273.693)" fill="#2b2150"/>
    <path id="Path_627" data-name="Path 627" d="M1371.976,625.027l-.2,0a.35.35,0,0,1-.342-.357.376.376,0,0,1,.357-.342,4.214,4.214,0,0,0,2.233-.419.349.349,0,1,1,.362.6A4.672,4.672,0,0,1,1371.976,625.027Z" transform="translate(8597.122 3344.289)" fill="#2b2150"/>
    <path id="Path_628" data-name="Path 628" d="M1334.539,647.484h-.015a25.316,25.316,0,0,1-4.3-.632.349.349,0,0,1,.15-.682,24.729,24.729,0,0,0,4.182.617.349.349,0,0,1-.014.7Z" transform="translate(8632.404 3325.318)" fill="#2b2150"/>
    <path id="Path_629" data-name="Path 629" d="M1369.588,626.8a.349.349,0,0,1-.027-.7q.457-.036.912-.112a8.411,8.411,0,0,0,3.342-1.31,6.729,6.729,0,0,0,2-2.515.349.349,0,1,1,.689.115c-.18,1.083-1.891,2.7-2.293,2.977a9.117,9.117,0,0,1-3.62,1.422c-.323.054-.647.093-.971.119Z" transform="translate(8598.985 3345.973)" fill="#2b2150"/>
    <path id="Path_630" data-name="Path 630" d="M1382.938,728.753a3.175,3.175,0,0,1-.811-.1,1.227,1.227,0,0,0,.475.517,1.924,1.924,0,0,0,1.6-.028.527.527,0,0,1,.35.992,4.04,4.04,0,0,1-1.3.245,2.277,2.277,0,0,1-1.174-.3,2.839,2.839,0,0,1-1.258-2.076c-.09-.49.522-.995.95-.657a2.577,2.577,0,0,0,2.572.014c.489-.244.643-.5.643-.566a.525.525,0,0,1,1.048-.035c.014.58-.427,1.139-1.223,1.538A4.279,4.279,0,0,1,1382.938,728.753Z" transform="translate(8589.143 3257.182)" fill="#2b2150"/>
    <path id="Path_631" data-name="Path 631" d="M1357.549,674.61a.524.524,0,0,1-.319-.94,5.942,5.942,0,0,1,2.216-1.088.524.524,0,1,1,.152,1.038,5.048,5.048,0,0,0-1.731.882A.521.521,0,0,1,1357.549,674.61Z" transform="translate(8609.374 3302.851)" fill="#2b2150"/>
    <path id="Path_632" data-name="Path 632" d="M1403.7,667.669a.524.524,0,0,1-.241-.99,3.655,3.655,0,0,1,2-.134.524.524,0,0,1-.188,1.031,2.778,2.778,0,0,0-1.326.034A.524.524,0,0,1,1403.7,667.669Z" transform="translate(8570.125 3308.05)" fill="#2b2150"/>
    <path id="Path_633" data-name="Path 633" d="M1468.21,1538.983s1.013.441,2.4.944a.851.851,0,0,0-.112.112c-1.7,2.062-6.563,3.551-10.351,3.69l-.587-2.817Z" transform="translate(8522.162 2565.954)" fill="#f5ae9e"/>
    <path id="Path_634" data-name="Path 634" d="M1458.381,1546.349c3.875.044,9.278-1.5,11.083-3.7a1.806,1.806,0,0,1,.966-.485,1.946,1.946,0,0,1,1.281-.006c2.972,1.366,3.85,2.086,8.913.529,1.606-.494,3.8-1.064,5.133-.112,1.134.808,1.778,4.862,1.763,5.471a.93.93,0,0,1-.048.327,1,1,0,0,1-.689.466c-7.417,2.316-14.939,4.245-22.457,6.173l-2.73.7a1.136,1.136,0,0,1-.962-.041C1460.441,1555.52,1458,1550.024,1458.381,1546.349Z" transform="translate(8523.202 2563.346)" fill="#789ed3"/>
    <path id="Path_635" data-name="Path 635" d="M1191.63,1591.314h-.02l-11.83-.652-4.809-4.079a.349.349,0,1,1,.452-.533l4.631,3.927,11.6.64a.349.349,0,0,1-.019.7Z" transform="translate(8764.319 2525.994)" fill="#2b2150"/>
  </g>
</svg>
