<svg width="18" height="14" viewBox="0 0 18 14" fill="none" xmlns="http://www.w3.org/2000/svg">
<path fill-rule="evenodd" clip-rule="evenodd" d="M4.04999 0.636002C4.23746 0.82353 4.34277 1.07784 4.34277 1.343C4.34277 1.60817 4.23746 1.86247 4.04999 2.05C3.3999 2.70002 2.88422 3.47173 2.53239 4.32105C2.18057 5.17038 1.99948 6.08069 1.99948 7C1.99948 7.91932 2.18057 8.82963 2.53239 9.67895C2.88422 10.5283 3.3999 11.3 4.04999 11.95C4.1455 12.0422 4.22168 12.1526 4.27409 12.2746C4.3265 12.3966 4.35408 12.5278 4.35524 12.6606C4.35639 12.7934 4.33109 12.9251 4.28081 13.048C4.23053 13.1709 4.15627 13.2825 4.06238 13.3764C3.96849 13.4703 3.85684 13.5445 3.73394 13.5948C3.61104 13.6451 3.47936 13.6704 3.34659 13.6693C3.21381 13.6681 3.08259 13.6405 2.96058 13.5881C2.83858 13.5357 2.72823 13.4595 2.63599 13.364C1.80025 12.5283 1.1373 11.5361 0.685003 10.4442C0.232704 9.35224 -9.15527e-05 8.18191 -9.15527e-05 7C-9.15527e-05 5.8181 0.232704 4.64776 0.685003 3.55583C1.1373 2.46389 1.80025 1.47173 2.63599 0.636002C2.82351 0.448531 3.07782 0.343216 3.34299 0.343216C3.60815 0.343216 3.86246 0.448531 4.04999 0.636002V0.636002ZM13.95 0.636002C14.1375 0.448531 14.3918 0.343216 14.657 0.343216C14.9222 0.343216 15.1765 0.448531 15.364 0.636002C16.1997 1.47173 16.8627 2.46389 17.315 3.55583C17.7673 4.64776 18.0001 5.8181 18.0001 7C18.0001 8.18191 17.7673 9.35224 17.315 10.4442C16.8627 11.5361 16.1997 12.5283 15.364 13.364C15.2717 13.4595 15.1614 13.5357 15.0394 13.5881C14.9174 13.6405 14.7862 13.6681 14.6534 13.6693C14.5206 13.6704 14.3889 13.6451 14.266 13.5948C14.1431 13.5445 14.0315 13.4703 13.9376 13.3764C13.8437 13.2825 13.7694 13.1709 13.7192 13.048C13.6689 12.9251 13.6436 12.7934 13.6447 12.6606C13.6459 12.5278 13.6735 12.3966 13.7259 12.2746C13.7783 12.1526 13.8545 12.0422 13.95 11.95C14.6001 11.3 15.1158 10.5283 15.4676 9.67895C15.8194 8.82963 16.0005 7.91932 16.0005 7C16.0005 6.08069 15.8194 5.17038 15.4676 4.32105C15.1158 3.47173 14.6001 2.70002 13.95 2.05C13.7625 1.86247 13.6572 1.60817 13.6572 1.343C13.6572 1.07784 13.7625 0.82353 13.95 0.636002V0.636002ZM6.87899 3.464C7.06646 3.65153 7.17177 3.90584 7.17177 4.171C7.17177 4.43617 7.06646 4.69047 6.87899 4.878C6.60036 5.15658 6.37933 5.48733 6.22854 5.85134C6.07774 6.21534 6.00013 6.60549 6.00013 6.9995C6.00013 7.39351 6.07774 7.78366 6.22854 8.14767C6.37933 8.51168 6.60036 8.84242 6.87899 9.121C6.97183 9.21391 7.04547 9.3242 7.09569 9.44557C7.14591 9.56694 7.17174 9.69701 7.17169 9.82836C7.17164 9.9597 7.14573 10.0898 7.09542 10.2111C7.04511 10.3324 6.9714 10.4427 6.87849 10.5355C6.78558 10.6283 6.67529 10.702 6.55392 10.7522C6.43255 10.8024 6.30248 10.8283 6.17113 10.8282C6.03978 10.8282 5.90973 10.8022 5.7884 10.7519C5.66707 10.7016 5.55683 10.6279 5.46399 10.535C4.52663 9.59736 4.00005 8.32582 4.00005 7C4.00005 5.67418 4.52663 4.40264 5.46399 3.465C5.55686 3.37203 5.66715 3.29827 5.78855 3.24794C5.90994 3.19762 6.04007 3.17172 6.17149 3.17172C6.3029 3.17172 6.43303 3.19762 6.55443 3.24794C6.67583 3.29827 6.78611 3.37203 6.87899 3.465V3.464ZM11.121 3.464C11.2139 3.37103 11.3241 3.29727 11.4455 3.24694C11.5669 3.19662 11.6971 3.17072 11.8285 3.17072C11.9599 3.17072 12.09 3.19662 12.2114 3.24694C12.3328 3.29727 12.4431 3.37103 12.536 3.464C13.0004 3.92831 13.3688 4.47957 13.6202 5.08628C13.8715 5.69299 14.0009 6.34328 14.0009 7C14.0009 7.65672 13.8715 8.30701 13.6202 8.91372C13.3688 9.52044 13.0004 10.0717 12.536 10.536C12.3483 10.7236 12.0939 10.8291 11.8285 10.8291C11.5631 10.8291 11.3086 10.7236 11.121 10.536C10.9333 10.3484 10.8279 10.0939 10.8279 9.8285C10.8279 9.56314 10.9333 9.30864 11.121 9.121C11.6834 8.55842 11.9993 7.79549 11.9993 7C11.9993 6.20451 11.6834 5.44159 11.121 4.879C11.028 4.78613 10.9543 4.67584 10.9039 4.55444C10.8536 4.43304 10.8277 4.30292 10.8277 4.1715C10.8277 4.04009 10.8536 3.90996 10.9039 3.78856C10.9543 3.66716 11.028 3.55688 11.121 3.464V3.464ZM8.99999 6C9.2652 6 9.51956 6.10536 9.70709 6.2929C9.89463 6.48043 9.99999 6.73479 9.99999 7V7.01C9.99999 7.27522 9.89463 7.52957 9.70709 7.71711C9.51956 7.90465 9.2652 8.01 8.99999 8.01C8.73477 8.01 8.48042 7.90465 8.29288 7.71711C8.10534 7.52957 7.99999 7.27522 7.99999 7.01V7C7.99999 6.73479 8.10534 6.48043 8.29288 6.2929C8.48042 6.10536 8.73477 6 8.99999 6V6Z" fill="#545D6E"/>
</svg>
