<svg xmlns="http://www.w3.org/2000/svg" width="27.164" height="25.075" viewBox="0 0 27.164 25.075">
  <g id="Icon_ionic-ios-wallet" data-name="Icon ionic-ios-wallet" transform="translate(-3.375 -4.499)">
    <path id="Path_637" data-name="Path 637" d="M26.621,11.25H7.293a3.921,3.921,0,0,0-3.918,3.918v10.97a3.921,3.921,0,0,0,3.918,3.918H26.621a3.921,3.921,0,0,0,3.918-3.918V15.168A3.921,3.921,0,0,0,26.621,11.25Z" transform="translate(0 -0.481)" fill="#fff"/>
    <path id="Path_638" data-name="Path 638" d="M22.712,4.565l-15.339,3C6.2,7.824,4.5,9.006,4.5,10.442A4.114,4.114,0,0,1,7.7,9.2H26.44V7.863a3.75,3.75,0,0,0-.908-2.455h0A3.088,3.088,0,0,0,22.712,4.565Z" transform="translate(-0.08)" fill="#fff"/>
    <rect id="Rectangle_177" data-name="Rectangle 177" width="5" height="3" transform="translate(22.957 19.037)" fill="blue"/>
  </g>
</svg>
