<svg xmlns="http://www.w3.org/2000/svg" width="40" height="40" viewBox="0 0 40 40">
  <g id="Group_492" data-name="Group 492" transform="translate(-19 -409)">
    <rect id="Rectangle_156" data-name="Rectangle 156" width="40" height="40" rx="7" transform="translate(19 409)" fill="#35ab60"/>
    <path id="Icon_ionic-ios-settings" data-name="Icon ionic-ios-settings" d="M23.31,14.751A2.638,2.638,0,0,1,25,12.29a10.458,10.458,0,0,0-1.265-3.049,2.674,2.674,0,0,1-1.073.23,2.632,2.632,0,0,1-2.408-3.705A10.426,10.426,0,0,0,17.213,4.5a2.636,2.636,0,0,1-4.923,0A10.458,10.458,0,0,0,9.241,5.765,2.632,2.632,0,0,1,6.833,9.471a2.587,2.587,0,0,1-1.073-.23A10.689,10.689,0,0,0,4.5,12.3a2.638,2.638,0,0,1,.005,4.923,10.458,10.458,0,0,0,1.265,3.049,2.634,2.634,0,0,1,3.476,3.476A10.519,10.519,0,0,0,12.3,25.008a2.631,2.631,0,0,1,4.912,0,10.458,10.458,0,0,0,3.049-1.265,2.636,2.636,0,0,1,3.476-3.476A10.519,10.519,0,0,0,25,17.218,2.651,2.651,0,0,1,23.31,14.751ZM14.8,19.017a4.271,4.271,0,1,1,4.271-4.271A4.27,4.27,0,0,1,14.8,19.017Z" transform="translate(24.248 414.25)" fill="#fff"/>
  </g>
</svg>
