<?xml version="1.0" encoding="UTF-8"?>
<svg xmlns="http://www.w3.org/2000/svg" xmlns:xlink="http://www.w3.org/1999/xlink" width="14px" height="19px" viewBox="0 0 14 19" version="1.1">
<g id="surface1">
<path style=" stroke:none;fill-rule:nonzero;fill:rgb(0%,0%,0%);fill-opacity:1;" d="M 8.378906 4.984375 L 8.378906 0 L 0.898438 0 C 0.660156 0 0.429688 0.09375 0.261719 0.257812 C 0.09375 0.421875 0 0.644531 0 0.878906 L 0 17.886719 C 0 18.121094 0.09375 18.347656 0.261719 18.511719 C 0.429688 18.675781 0.660156 18.769531 0.898438 18.769531 L 13.460938 18.769531 C 13.699219 18.769531 13.929688 18.675781 14.097656 18.511719 C 14.265625 18.347656 14.359375 18.121094 14.359375 17.886719 L 14.359375 5.863281 L 9.273438 5.863281 C 8.78125 5.863281 8.378906 5.46875 8.378906 4.984375 Z M 10.769531 13.636719 C 10.769531 13.878906 10.566406 14.074219 10.320312 14.074219 L 4.039062 14.074219 C 3.792969 14.074219 3.589844 13.878906 3.589844 13.636719 L 3.589844 13.34375 C 3.589844 13.097656 3.792969 12.902344 4.039062 12.902344 L 10.324219 12.902344 C 10.570312 12.902344 10.769531 13.097656 10.769531 13.34375 Z M 10.769531 11.292969 C 10.769531 11.539062 10.566406 11.734375 10.320312 11.734375 L 4.039062 11.734375 C 3.792969 11.734375 3.589844 11.539062 3.589844 11.292969 L 3.589844 11 C 3.589844 10.882812 3.636719 10.769531 3.71875 10.6875 C 3.804688 10.601562 3.917969 10.554688 4.039062 10.554688 L 10.324219 10.554688 C 10.570312 10.554688 10.769531 10.753906 10.769531 10.996094 Z M 10.769531 8.65625 L 10.769531 8.949219 C 10.769531 9.191406 10.566406 9.386719 10.320312 9.390625 L 4.039062 9.390625 C 3.792969 9.386719 3.589844 9.191406 3.589844 8.949219 L 3.589844 8.65625 C 3.589844 8.414062 4.039062 8.214844 4.039062 8.214844 L 10.324219 8.214844 C 10.570312 8.21875 10.769531 8.414062 10.769531 8.65625 Z M 14.359375 4.472656 L 14.359375 4.695312 L 9.574219 4.695312 L 9.574219 0 L 9.800781 0 C 10.039062 0 10.265625 0.0898438 10.433594 0.257812 L 14.097656 3.84375 C 14.265625 4.011719 14.359375 4.234375 14.359375 4.46875 Z M 14.359375 4.472656 "/>
</g>
</svg>
