<svg xmlns="http://www.w3.org/2000/svg" width="29.25" height="27" viewBox="0 0 29.25 27">
  <g id="Icon_ionic-ios-qr-scanner" data-name="Icon ionic-ios-qr-scanner" transform="translate(-3.375 -4.5)">
    <path id="Path_390" data-name="Path 390" d="M12.234,4.5H8.1A4.726,4.726,0,0,0,3.375,9.225v4.134a.984.984,0,0,0,1.969,0v-4.2a2.7,2.7,0,0,1,.823-1.842A2.685,2.685,0,0,1,8.03,6.469h4.2a.984.984,0,0,0,0-1.969Z" fill="#fff"/>
    <path id="Path_391" data-name="Path 391" d="M27.97,4.5h-4.2a.984.984,0,0,0,0,1.969h4.2a2.685,2.685,0,0,1,1.863.844,2.7,2.7,0,0,1,.823,1.842v4.2a.984.984,0,0,0,1.969,0v-4.2A4.66,4.66,0,0,0,27.97,4.5Z" fill="#fff"/>
    <path id="Path_392" data-name="Path 392" d="M12.234,29.531H8.03a2.685,2.685,0,0,1-1.863-.844,2.7,2.7,0,0,1-.823-1.842v-4.2a.984.984,0,0,0-1.969,0v4.2A4.66,4.66,0,0,0,8.03,31.5h4.2a.984.984,0,0,0,0-1.969Z" fill="#fff"/>
    <path id="Path_393" data-name="Path 393" d="M31.641,21.656a.987.987,0,0,0-.984.984v4.2a2.862,2.862,0,0,1-2.686,2.686h-4.2a.984.984,0,0,0,0,1.969H27.9a4.731,4.731,0,0,0,4.725-4.725V22.641A.987.987,0,0,0,31.641,21.656Z" fill="#fff"/>
  </g>
</svg>
