<?xml version="1.0" encoding="UTF-8"?>
<svg xmlns="http://www.w3.org/2000/svg" xmlns:xlink="http://www.w3.org/1999/xlink" width="186px" height="177px" viewBox="0 0 185 177" version="1.1">
<g id="surface1">
<path style=" stroke:none;fill-rule:nonzero;fill:rgb(0%,0%,0%);fill-opacity:1;" d="M 57.71875 11.082031 L 11.542969 11.082031 L 11.542969 55.417969 L 57.71875 55.417969 Z M 69.261719 0 L 69.261719 66.496094 L 0 66.496094 L 0 0 Z M 23.085938 22.167969 L 46.171875 22.167969 L 46.171875 44.332031 L 23.085938 44.332031 Z M 173.152344 11.082031 L 126.976562 11.082031 L 126.976562 55.417969 L 173.152344 55.417969 Z M 184.695312 0 L 184.695312 66.496094 L 115.433594 66.496094 L 115.433594 0 Z M 138.519531 22.167969 L 161.605469 22.167969 L 161.605469 44.332031 L 138.519531 44.332031 Z M 57.71875 121.914062 L 11.542969 121.914062 L 11.542969 166.246094 L 57.71875 166.246094 Z M 69.261719 110.828125 L 69.261719 177.328125 L 0 177.328125 L 0 110.828125 Z M 23.085938 132.996094 L 46.171875 132.996094 L 46.171875 155.160156 L 23.085938 155.160156 Z M 80.804688 0 L 92.347656 0 L 92.347656 11.082031 L 80.804688 11.082031 Z M 92.347656 11.082031 L 103.890625 11.082031 L 103.890625 22.167969 L 92.347656 22.167969 Z M 80.804688 22.167969 L 92.347656 22.167969 L 92.347656 33.25 L 80.804688 33.25 Z M 92.347656 33.25 L 103.890625 33.25 L 103.890625 44.332031 L 92.347656 44.332031 Z M 80.804688 44.332031 L 92.347656 44.332031 L 92.347656 55.417969 L 80.804688 55.417969 Z M 92.347656 55.417969 L 103.890625 55.417969 L 103.890625 66.496094 L 92.347656 66.496094 Z M 80.804688 66.496094 L 92.347656 66.496094 L 92.347656 77.578125 L 80.804688 77.578125 Z M 80.804688 88.660156 L 92.347656 88.660156 L 92.347656 99.746094 L 80.804688 99.746094 Z M 92.347656 99.746094 L 103.890625 99.746094 L 103.890625 110.828125 L 92.347656 110.828125 Z M 80.804688 110.828125 L 92.347656 110.828125 L 92.347656 121.914062 L 80.804688 121.914062 Z M 92.347656 121.914062 L 103.890625 121.914062 L 103.890625 132.996094 L 92.347656 132.996094 Z M 80.804688 132.996094 L 92.347656 132.996094 L 92.347656 144.078125 L 80.804688 144.078125 Z M 92.347656 144.078125 L 103.890625 144.078125 L 103.890625 155.164062 L 92.347656 155.164062 Z M 80.804688 155.160156 L 92.347656 155.160156 L 92.347656 166.246094 L 80.804688 166.246094 Z M 92.347656 166.246094 L 103.890625 166.246094 L 103.890625 177.328125 L 92.347656 177.328125 Z M 173.152344 88.660156 L 184.695312 88.660156 L 184.695312 99.746094 L 173.152344 99.746094 Z M 11.542969 88.660156 L 23.085938 88.660156 L 23.085938 99.746094 L 11.542969 99.746094 Z M 23.085938 77.578125 L 34.628906 77.578125 L 34.628906 88.660156 L 23.085938 88.660156 Z M 0 77.578125 L 11.542969 77.578125 L 11.542969 88.660156 L 0 88.660156 Z M 46.171875 77.578125 L 57.71875 77.578125 L 57.71875 88.660156 L 46.171875 88.660156 Z M 57.71875 88.660156 L 69.261719 88.660156 L 69.261719 99.746094 L 57.71875 99.746094 Z M 69.261719 77.578125 L 80.804688 77.578125 L 80.804688 88.660156 L 69.261719 88.660156 Z M 103.886719 88.664062 L 115.429688 88.664062 L 115.429688 99.746094 L 103.890625 99.746094 Z M 115.429688 77.578125 L 126.976562 77.578125 L 126.976562 88.660156 L 115.433594 88.660156 Z M 126.976562 88.660156 L 138.519531 88.660156 L 138.519531 99.746094 L 126.976562 99.746094 Z M 138.519531 77.578125 L 150.0625 77.578125 L 150.0625 88.660156 L 138.519531 88.660156 Z M 150.0625 88.660156 L 161.605469 88.660156 L 161.605469 99.746094 L 150.0625 99.746094 Z M 161.605469 77.578125 L 173.152344 77.578125 L 173.152344 88.660156 L 161.605469 88.660156 Z M 173.152344 110.828125 L 184.695312 110.828125 L 184.695312 121.914062 L 173.152344 121.914062 Z M 103.890625 110.828125 L 115.433594 110.828125 L 115.433594 121.914062 L 103.890625 121.914062 Z M 115.433594 99.746094 L 126.976562 99.746094 L 126.976562 110.828125 L 115.433594 110.828125 Z M 126.976562 110.828125 L 138.515625 110.828125 L 138.515625 121.914062 L 126.976562 121.914062 Z M 150.058594 110.828125 L 161.605469 110.828125 L 161.605469 121.914062 L 150.0625 121.914062 Z M 161.605469 99.746094 L 173.148438 99.746094 L 173.148438 110.828125 L 161.605469 110.828125 Z M 173.148438 132.996094 L 184.691406 132.996094 L 184.691406 144.078125 L 173.152344 144.078125 Z M 103.886719 132.996094 L 115.429688 132.996094 L 115.429688 144.078125 L 103.890625 144.078125 Z M 115.429688 121.910156 L 126.976562 121.910156 L 126.976562 132.996094 L 115.433594 132.996094 Z M 138.515625 121.910156 L 150.058594 121.910156 L 150.058594 132.996094 L 138.519531 132.996094 Z M 150.058594 132.996094 L 161.605469 132.996094 L 161.605469 144.078125 L 150.0625 144.078125 Z M 161.605469 121.910156 C 164.492188 119.140625 173.148438 121.910156 173.148438 121.910156 L 173.148438 132.996094 L 161.605469 132.996094 C 161.605469 132.996094 158.71875 124.683594 161.605469 121.914062 Z M 173.148438 155.160156 L 184.691406 155.160156 L 184.691406 166.246094 L 173.152344 166.246094 Z M 115.433594 144.078125 L 126.976562 144.078125 L 126.976562 155.164062 L 115.433594 155.164062 Z M 126.976562 155.164062 L 138.519531 155.164062 L 138.519531 166.246094 L 126.976562 166.246094 Z M 138.519531 144.078125 L 150.0625 144.078125 L 150.0625 155.164062 L 138.519531 155.164062 Z M 150.0625 155.164062 L 161.605469 155.164062 L 161.605469 166.246094 L 150.0625 166.246094 Z M 115.4375 166.246094 L 126.976562 166.246094 L 126.976562 177.328125 L 115.433594 177.328125 Z M 138.523438 166.246094 L 150.066406 166.246094 L 150.066406 177.328125 L 138.519531 177.328125 Z M 161.609375 166.246094 L 173.15625 166.246094 L 173.15625 177.328125 L 161.605469 177.328125 Z M 161.609375 166.246094 "/>
</g>
</svg>
