<svg xmlns="http://www.w3.org/2000/svg" width="40" height="40" viewBox="0 0 40 40">
  <g id="Group_486" data-name="Group 486" transform="translate(-19 -214)">
    <rect id="Rectangle_153" data-name="Rectangle 153" width="40" height="40" rx="7" transform="translate(19 214)" fill="#717171"/>
    <path id="Icon_ionic-ios-lock" data-name="Icon ionic-ios-lock" d="M22.107,11.273H20.791V8.711A5.265,5.265,0,1,0,10.26,8.64v2.633H8.944A2.2,2.2,0,0,0,6.75,13.467V24a2.2,2.2,0,0,0,2.194,2.194H22.107A2.2,2.2,0,0,0,24.3,24V13.467A2.2,2.2,0,0,0,22.107,11.273Zm-5.814,6.845v3.773a.786.786,0,0,1-.729.79.769.769,0,0,1-.806-.768v-3.8a1.755,1.755,0,1,1,1.536,0Zm2.962-6.845H11.8V8.64a3.73,3.73,0,0,1,7.459,0Z" transform="translate(23.475 218.592)" fill="#fff"/>
  </g>
</svg>
