<svg xmlns="http://www.w3.org/2000/svg" width="24" height="24" viewBox="0 0 24 24">
  <g id="Group_420" data-name="Group 420" transform="translate(-101 -231)">
    <circle id="Ellipse_33" data-name="Ellipse 33" cx="12" cy="12" r="12" transform="translate(101 231)" fill="blue"/>
    <path id="Icon_ionic-ios-checkmark" data-name="Icon ionic-ios-checkmark" d="M25.5,13.563l-1.237-1.273a.266.266,0,0,0-.2-.084h0a.255.255,0,0,0-.2.084l-8.578,8.641L12.164,17.81a.272.272,0,0,0-.394,0l-1.252,1.252a.28.28,0,0,0,0,.4L14.456,23.4a1.245,1.245,0,0,0,.823.4,1.3,1.3,0,0,0,.816-.387H16.1l9.4-9.45A.3.3,0,0,0,25.5,13.563Z" transform="translate(94.995 224.793)" fill="#fefffe"/>
  </g>
</svg>
