<svg xmlns="http://www.w3.org/2000/svg" width="94.134" height="68.062" viewBox="0 0 94.134 68.062">
  <g id="Group_389" data-name="Group 389" transform="translate(-177.051 423.871)">
    <path id="Path_373" data-name="Path 373" d="M276.082-378.607c-.328.237-.67.458-.981.717-.283.235-.488.6-.8.754-.82.409-1.674.756-2.529,1.09-.522.2-1.041.492-1.645.119a.744.744,0,0,0-.714.144c-.632.871-1.606.774-2.477.936a4.585,4.585,0,0,1-2.021.175,6.564,6.564,0,0,0-2.962-.021,7.016,7.016,0,0,1-3.476-.465,9.313,9.313,0,0,0-2.771-.743,10.049,10.049,0,0,1-3.061-1.2c-.359-.171-.584-.6-.912-.86a3.572,3.572,0,0,0-.907-.508,6.016,6.016,0,0,1-1.132-.337,20.716,20.716,0,0,1-2.319-1.763,7.768,7.768,0,0,1-.764-1.182,3.561,3.561,0,0,0-.761-.712c-.3-.216-.72-.3-.954-.567-.609-.686-1.152-1.431-1.708-2.164a1.985,1.985,0,0,1-.56-1.57c.034-.226-.257-.526-.445-.756a7.314,7.314,0,0,1-.978-1.12,20.1,20.1,0,0,1-1.073-2.621,5.227,5.227,0,0,1-.048-1.118c-.034-.345-.009-.858-.211-.992a1.594,1.594,0,0,1-.651-1.269c-.138-.934-.3-1.87-.348-2.81a5.276,5.276,0,0,1,.3-1.31c.055-.247.2-.6.09-.739-.849-1.1-.306-2.284-.192-3.412.082-.813.016-1.756.912-2.3a.613.613,0,0,0,.144-.574c-.443-.976.128-1.781.416-2.621a4.6,4.6,0,0,1,.833-1.768,7.862,7.862,0,0,0,1.589-2.694,6.647,6.647,0,0,1,2.1-2.705,9.041,9.041,0,0,0,2.02-2.053,9.691,9.691,0,0,1,2.45-1.953,7.731,7.731,0,0,1,1.343-.456,3.638,3.638,0,0,0,.873-.546c.286-.234.482-.616.8-.769a25.994,25.994,0,0,1,2.83-1.185,5.212,5.212,0,0,1,1.263-.044c.3-.021.74,0,.861-.174.5-.715,1.246-.692,1.949-.809a13.725,13.725,0,0,1,2.108-.255,6.59,6.59,0,0,1,1.378.314c.249.054.613.2.743.086.983-.838,2.061-.281,3.09-.252a3.29,3.29,0,0,1,1.682.327,5.262,5.262,0,0,0,2.628.734,7.152,7.152,0,0,1,3.382,1.394,11.765,11.765,0,0,0,2.508,1.443,6.355,6.355,0,0,1,2.818,2.2,10.359,10.359,0,0,0,2.173,2.131,16.954,16.954,0,0,1,1.981,2.543,1.16,1.16,0,0,1,.287.766,1.031,1.031,0,0,0,.694,1.3,1.163,1.163,0,0,1,.523.518c.421.9.822,1.817,1.185,2.746a1.734,1.734,0,0,1,.112,1.641c-.108.192.194.634.343.945s.443.586.5.907a10.881,10.881,0,0,1,.391,3.343,9.718,9.718,0,0,0,0,2.968,6.65,6.65,0,0,1-.449,3.4,11.529,11.529,0,0,0-.8,2.985,6.144,6.144,0,0,1-1.335,3.146,9.218,9.218,0,0,0-1.487,2.629,10.429,10.429,0,0,1-1.787,2.388c-.3.338-.806.483-1.172.775a4.1,4.1,0,0,0-.736.829c-.17.237-.212.6-.421.77-.911.752-1.853,1.466-2.8,2.168a3.362,3.362,0,0,1-.754.314Zm-34.367-15.141a22.227,22.227,0,0,0,5.8,10.363,22.212,22.212,0,0,0,15.822,6.62,22.072,22.072,0,0,0,15.926-6.534,22.042,22.042,0,0,0,6.641-15.859,21.975,21.975,0,0,0-6.526-15.9,22.127,22.127,0,0,0-15.9-6.645,21.45,21.45,0,0,0-15.85,6.536A22.072,22.072,0,0,0,241.715-393.748Z" transform="translate(-39.134)" fill="blue"/>
    <path id="Path_374" data-name="Path 374" d="M275.7-273.663h3.81v12.98c-1.258,0-2.533.02-3.806-.022-.189-.006-.412-.279-.546-.478-1.3-1.939-2.579-3.889-3.99-6.026v6.479h-3.881v-13c1.288,0,2.542-.029,3.792.026.233.011.506.327.667.565,1.158,1.72,2.291,3.457,3.433,5.187.122.185.26.361.52.72Z" transform="translate(-57.192 -95.157)" fill="blue"/>
    <path id="Path_375" data-name="Path 375" d="M315.5-273.642v3.779c-.338.015-.64.039-.943.04-1.734,0-3.469-.01-5.2.011a6.12,6.12,0,0,0-1.07.2l.008.332c.52.071,1.039.152,1.561.213a20.635,20.635,0,0,1,3.634.452,3.875,3.875,0,0,1,2.676,3.788,4.165,4.165,0,0,1-2.867,3.851,4.34,4.34,0,0,1-1.3.3c-2.309.029-4.617.014-7,.014v-3.748c2.419-.22,4.846.216,7.216-.249l.023-.35a5.959,5.959,0,0,0-.91-.2c-1.021-.061-2.053-.02-3.065-.144a4.188,4.188,0,0,1-3.892-4.2,4.179,4.179,0,0,1,4.057-4.047c2.147-.129,4.306-.067,6.46-.086C315.07-273.689,315.249-273.661,315.5-273.642Z" transform="translate(-80.698 -95.187)" fill="blue"/>
    <path id="Path_376" data-name="Path 376" d="M220.526-260.641a6.491,6.491,0,0,1-6.539-6.558,6.513,6.513,0,0,1,6.537-6.5,6.554,6.554,0,0,1,6.552,6.569A6.525,6.525,0,0,1,220.526-260.641Zm.013-9.186a2.748,2.748,0,0,0-2.716,2.606,2.775,2.775,0,0,0,2.753,2.749,2.784,2.784,0,0,0,2.638-2.706A2.742,2.742,0,0,0,220.539-269.827Z" transform="translate(-23.41 -95.182)" fill="blue"/>
    <path id="Path_377" data-name="Path 377" d="M336.492-260.654c.416-1.115.79-2.116,1.163-3.117,1.145-3.075,2.3-6.144,3.42-9.228a.9.9,0,0,1,1.067-.728c1.021.064,2.05-.01,3.073.038a.9.9,0,0,1,.676.431c1.539,4.046,3.046,8.1,4.555,12.161a2.687,2.687,0,0,1,.074.441c-1.173,0-2.3.024-3.422-.023-.195-.008-.461-.283-.551-.5-.581-1.367-.568-1.372-2.049-1.372-.868,0-1.737.038-2.6-.013a.921.921,0,0,0-1.088.728c-.4,1.186-.43,1.176-1.679,1.178Zm7.061-8.488-1.3,3.51h2.593Z" transform="translate(-101.054 -95.159)" fill="blue"/>
    <path id="Path_378" data-name="Path 378" d="M417.643-265.63h-5.585v2.162h5.595v2.861h-9.491v-12.969h9.5v2.873h-5.621v2.141h5.6Z" transform="translate(-146.478 -95.257)" fill="blue"/>
    <path id="Path_379" data-name="Path 379" d="M189.275-270.28c-1.05.514-2.094,1.052-3.168,1.519-.157.068-.5-.165-.694-.33a2.582,2.582,0,0,0-3.059-.408,2.6,2.6,0,0,0-1.405,2.672,2.691,2.691,0,0,0,2.09,2.292,2.41,2.41,0,0,0,2.378-.707.745.745,0,0,1,1.073-.144c.9.477,1.819.9,2.722,1.344-.726,2.155-3.848,3.751-6.484,3.372a6.494,6.494,0,0,1-5.668-6.356,6.476,6.476,0,0,1,4.957-6.461A6.435,6.435,0,0,1,189.275-270.28Z" transform="translate(0 -95.193)" fill="blue"/>
    <path id="Path_380" data-name="Path 380" d="M378.576-273.681c3.06,0,6.051-.006,9.043.015.168,0,.474.211.481.336.043.83.022,1.663.022,2.563h-5.669v2.173h5.2v2.887h-5.245v5.019h-3.831Z" transform="translate(-127.727 -95.19)" fill="blue"/>
    <path id="Path_381" data-name="Path 381" d="M253.241-260.566v-12.945h3.794v12.945Z" transform="translate(-48.29 -95.299)" fill="blue"/>
    <path id="Path_382" data-name="Path 382" d="M274.437-373.6a26.782,26.782,0,0,1-3,.75c-1.033.142-2.08.52-3.157,0-.282-.137-.779.255-1.162.224a17.994,17.994,0,0,1-3.427-.457c-1.842-.524-3.636-1.223-5.437-1.882-.264-.1-.457-.383-.686-.579-.114-.1-.223-.249-.353-.273-1.732-.326-2.87-1.593-3.974-2.756-.406-.427-.9-.737-1.274-1.174-.631-.739-1.231-1.5-1.827-2.271-.62-.8-.918-1.775-1.5-2.614a12.287,12.287,0,0,1-1.216-2.808,5.644,5.644,0,0,1-.165-1.274c-.012-.1.017-.234-.036-.3-.953-1.26-.876-2.774-.9-4.2a50.334,50.334,0,0,1,.3-5.441,24.506,24.506,0,0,1,.788-2.89,14.265,14.265,0,0,1,1.149-2.839,4.146,4.146,0,0,1,.666-.824c.066-.079.194-.143.2-.226.2-1.577,1.329-2.609,2.319-3.636a55.289,55.289,0,0,1,4.361-3.833,3.143,3.143,0,0,1,.995-.368c.1-.034.247-.022.293-.087.879-1.233,2.307-1.533,3.593-1.9a31.8,31.8,0,0,1,5.94-1.166,27.927,27.927,0,0,1,5.1.27,6.875,6.875,0,0,1,1.639.6c.072.027.15.086.216.076,1.521-.236,2.768.578,3.967,1.234a52.691,52.691,0,0,1,4.908,3.272,3.464,3.464,0,0,1,.657.915c.059.085.1.215.179.248,1.41.578,2.071,1.883,2.811,3.048a28.459,28.459,0,0,1,1.519,2.567,27.81,27.81,0,0,1,1.148,2.843,3.169,3.169,0,0,1,.064.9c.006.125-.047.287.014.371.981,1.361.909,2.978.972,4.51a31.982,31.982,0,0,1-.294,4.781,7.266,7.266,0,0,1-.632,1.7c-.028.072-.107.147-.1.209.283,1.611-.613,2.9-1.308,4.166a20.54,20.54,0,0,1-1.39,2.46c-.579.779-1.162,1.557-1.787,2.3a4.061,4.061,0,0,1-.857.608c-.085.058-.222.09-.254.168-.631,1.513-2.037,2.24-3.3,3-1.63.981-3.423,1.691-5.149,2.509a4.049,4.049,0,0,1-.6.182Zm9.631-32.5-.247-.3-2.4,1.812-.213-.262,2.356-1.931-.208-.254-2.382,1.869-.177-.223,2.219-2.039-.23-.243-2.251,2-.23-.242,2.178-2.1-.243-.251-1.544,1.417-.2-.242,1.372-1.45-.284-.417c-.879.492-1.341,1.634-2.215,2.134L279.2-407l1.95-2.314-.261-.211-2,2.265-.219-.2,1.834-2.371-.27-.216-1.865,2.371-.253-.2,1.734-2.451-.289-.2-1.757,2.443-.26-.168,1.636-2.571-.267-.162L277.2-408.5l-.225-.167,1.532-2.6-.305-.171-1.1,1.783-.289-.156,1.072-1.953c-.988-.213-.922.642-1.195,1.01a11.618,11.618,0,0,0-.809,1.475l-.3-.172,1.338-2.674-.223-.144c-.769.684-.788,1.914-1.512,2.63l-.21-.114,1.193-2.748-.323-.14-1.241,2.76-.205-.089c.081-1,.862-1.86.923-2.869l-.289-.076-1.037,2.784-.315-.1.961-2.872-.365-.122-.943,2.868-.319-.107c.146-.508.3-1.014.436-1.524.126-.469.234-.942.35-1.413l-.293-.05-.629,1.987-.267-.068.443-2.117c-1.005.067-.682.847-.849,1.282a11.323,11.323,0,0,0-.373,1.6l-.324-.06.527-2.94-.337-.048c-.1.5-.192.991-.3,1.485-.1.47-.212.938-.319,1.407l-.269-.079.429-2.9-.346-.059q-.238,1.478-.476,2.956l-.292-.056.29-2.991-.328-.04-.361,2.984-.294-.032.167-2.956-.314-.026q-.138,1.493-.275,2.987l-.286-.029v-3.01l-.235-.021q-.093,1.061-.185,2.121l-.287-.032a6.34,6.34,0,0,0-.011-.995,8.8,8.8,0,0,0-.308-1.075,6.7,6.7,0,0,0-.251,1.093c-.041.641-.011,1.287-.011,1.931l-.241.009q-.142-1.479-.284-2.958l-.323.028q.1,1.478.191,2.956l-.292.021-.379-2.98-.351.027q.169,1.517.338,3.034l-.308.029q-.251-1.485-.5-2.97l-.348.065q.239,1.468.479,2.937l-.3.053-.656-2.908-.331.085c.107.492.222.982.318,1.476.092.477.164.958.245,1.437l-.285.061-.734-2.909-.331.084.45,2.062-.282.066-.6-1.957-.309-.02c-.468.419.04.956.141,1.417.12.546.325,1.074.493,1.61l-.312.1-1.019-2.845-.318.121.965,2.858-.289.12-1.123-2.826-.356.159,1.142,2.777-.318.134c-.211-.471-.4-.955-.642-1.41-.231-.432-.22-1.056-.988-1.367l1.275,2.947-.286.129-1.327-2.729-.319.168,1.294,2.74-.282.135-1.419-2.662-.32.153.961,1.933-.271.126c-.223-.369-.447-.738-.667-1.108-.409-.69-.408-.69-.891-.3l1.578,2.475-.272.177-1.744-2.5-.293.207,1.721,2.495-.27.187-1.8-2.407-.29.192,1.776,2.457-.234.164-1.939-2.294-.248.221,1.9,2.334-.233.2-2.045-2.246-.254.231,2,2.283-.232.2-2.117-2.171-.242.23,1.413,1.569-.227.219c-.388-.381-.754-.788-1.174-1.128-.149-.121-.43-.079-.65-.112l-.058.244,2.177,2.028-.17.207c-.915-.446-1.473-1.452-2.407-1.867l-.16.209,2.273,1.984-.2.253-2.364-1.88-.233.3,2.377,1.87-.2.247-2.477-1.749-.2.293c.406.287.813.572,1.217.862s.809.591,1.213.887l-.2.267-2.472-1.659-.2.268,2.483,1.741-.163.255-2.577-1.584-.175.293,1.739,1.172-.144.231-1.8-.955-.207.114c.1.2.139.5.3.593.537.326,1.121.575,1.678.869a5.5,5.5,0,0,1,.558.385l-.135.245-2.719-1.326-.145.325,2.7,1.341-.138.268c-.491-.211-.985-.413-1.471-.633-1.074-.486-1.072-.489-1.468-.217l2.8,1.209-.1.23c-1.014-.076-1.867-.911-2.893-.93l-.07.27,2.813,1.085-.114.312-2.852-.995-.123.291c.831.577,1.969.545,2.822,1.079l-.065.239-2.918-.788-.077.312,2,.659-.094.276c-.516-.126-1.045-.213-1.544-.389s-.591.032-.58.476l2.9.694-.063.3-2.992-.558-.069.354,2.98.583-.06.288-1.5-.194-1.457-.186-.046.306,2.923.5-.057.291-2.918-.3-.049.343,2.982.353-.042.287-3.013-.151-.023.382,3.012.13-.015.335c-1,.071-2.038-.165-3.031,0l0,.3,2.106.136-.011.254H248.58c-.011.22-.025.408-.021.409,1.007.1,2.015.182,3.023.266l.023.188-2.98.253.038.333c.5-.027,1.006-.053,1.509-.083.485-.029.97-.064,1.456-.1l.022.285-2.978.406.06.342,2.965-.364.048.312-2.945.5.052.353c.476-.077.952-.16,1.43-.229.5-.072,1.008-.13,1.512-.194l.037.278-2.893.589.044.34,2.973-.546c-.8.8-2.016.486-2.832,1.142l.07.224,2.017-.451.07.27-1.934.618-.063.236c.209.07.443.237.623.191.66-.167,1.3-.414,1.951-.611a2.326,2.326,0,0,1,.528-.037l.047.215-2.85,1.017.117.322,2.87-.969.092.277c-.323.134-.644.272-.969.4-.341.136-.693.249-1.027.4-.266.121-.512.285-.768.43l.14.224,2.8-1.1.115.276-2.766,1.26.157.337,2.744-1.254.148.283-2.7,1.375.116.244c.506.02.888-.363,1.325-.555.483-.213.949-.465,1.422-.7l.119.2c-.713.731-1.88.881-2.593,1.612l.163.235,1.862-.957.152.257c-.5.3-1,.581-1.478.9-.11.074-.13.281-.191.427.172.025.387.127.51.06.437-.237.838-.54,1.263-.8.323-.2.662-.373.995-.557l.149.243c-.44.3-.887.582-1.319.888-.391.278-.766.578-1.148.868l.2.249,2.472-1.708.174.244c-.67.761-1.769,1.083-2.366,1.918l.191.223,2.4-1.823.2.243-2.313,1.95.222.253,2.341-1.879.182.229-2.224,2.028.234.256,2.259-2.014.211.247-2.166,2.126.227.229,1.575-1.4.206.218c-.366.378-.715.773-1.1,1.127-.37.339-.314.543.152.722l2.008-2.144.216.205-1.949,2.334.253.211,2.01-2.274.219.193-1.847,2.382.266.2,1.911-2.347.244.207-1.8,2.408.309.233,1.784-2.445.265.181-1.678,2.536.3.2,1.695-2.518.253.176-1.537,2.592.292.172,1.152-1.787.242.148c-.2.372-.4.749-.6,1.116-.4.7-.4.7.162.971l1.386-2.611.3.154-1.32,2.7.3.16,1.357-2.689.262.116-1.158,2.788.323.124,1.2-2.752.31.128-1.106,2.775.3.141c.593-.818.632-1.949,1.287-2.747.06,1.055-.739,1.929-.685,2.962l.245.068.958-2.847.22.075c.045,1.031-.777,1.939-.624,2.984l.219.051.63-2.031.319.105c-.151.534-.325,1.063-.438,1.6-.03.146.125.331.2.5.132-.112.347-.2.383-.339.181-.684.307-1.381.472-2.069a2.212,2.212,0,0,1,.235-.465l.211.075-.576,2.919.3.09c.454-.893.252-2.027.72-2.915l.227.048-.43,2.947.341.057.494-2.975.289.043c-.057.521-.124,1.042-.168,1.564-.041.488-.058.979-.085,1.468h.307q.172-1.486.344-2.972l.242.023v2.95l.244.005q.1-1.466.2-2.931l.293,0v2.965l.289,0,.181-2.051.284.026c0,.488-.031.98.015,1.464.019.2.205.385.315.576.093-.2.266-.409.265-.613,0-.63-.081-1.258-.11-1.888a2.473,2.473,0,0,1,.089-.525l.239.007.258,2.983.335-.038q-.091-1.462-.181-2.923l.279-.029.379,2.96.327-.032-.293-3.052.274-.022.52,2.979.319-.065q-.207-1.476-.414-2.952l.234-.029c.446.9.2,2.035.772,2.892l.24-.062-.582-2.917.293-.06.757,2.9.319-.091c-.076-.341-.16-.681-.226-1.023s-.115-.69-.171-1.035l.245-.048.6,2.021.542-.244-.838-2.84.3-.091.973,2.848.369-.112-1.01-2.859.328-.1,1.084,2.793.339-.124-1.083-2.842.283-.122,1.238,2.768.345-.154-1.263-2.763.321-.142,1.315,2.716.327-.143-1.307-2.769.219-.118c.675.753.857,1.894,1.6,2.595l.23-.164-.972-1.81.283-.148,1.07,1.759.271-.031a1.928,1.928,0,0,0,.022-.622,2.546,2.546,0,0,0-.363-.605q-.51-.787-1.025-1.571l.279-.19,1.726,2.483.289-.2-1.7-2.51.294-.192c.305.43.6.868.919,1.286.293.383.614.744.922,1.115l.21-.2-1.763-2.413.253-.18c.337.417.681.829,1.011,1.252.735.941.732.943,1.146.819l-1.875-2.326.244-.2,2.012,2.267.284-.236-2.028-2.274.248-.209,2.111,2.136.243-.235-1.437-1.538.231-.2,1.575,1.475c.531-.892-.374-1.013-.649-1.379a10.686,10.686,0,0,0-1.184-1.173l.214-.207c.409.352.822.7,1.226,1.055.9.794.9.8,1.289.611l-2.293-1.962.22-.249,2.367,1.872.225-.265-2.369-1.9.161-.238L284-382.9l.178-.278-2.429-1.75.188-.276,2.523,1.664.194-.3-2.512-1.681.174-.252,2.588,1.53.166-.292-1.758-1.129.169-.256,1.794.986.289-.354c-.639-.82-1.928-.907-2.622-1.664l.13-.21,2.722,1.32.151-.313-2.708-1.361.138-.271,2.751,1.2.152-.355-2.788-1.193.124-.3,2.852,1.091.139-.343-2.824-1.1.127-.295,2.854.956.112-.353-2.878-.955.1-.3,2.918.8.08-.3-2.014-.7.078-.241,2.006.45c.312-.5.034-.619-.358-.7-.792-.167-1.581-.352-2.371-.529l.055-.313,2.952.556.066-.354-2.953-.577.066-.294,1.512.208,1.436.2.054-.336-2.967-.5.051-.27,2.993.277.045-.338-2.98-.329.045-.309,2.952.173.037-.366-3.015-.171.013-.334H287.8l0-.29-2.065-.135.021-.292c.407,0,.816.025,1.221-.008.335-.027.911.222.775-.612h-2.962l-.012-.229,3-.232-.038-.366-3.009.213-.009-.292,2.986-.393-.04-.352-3,.351-.038-.322,2.987-.481-.054-.348-3,.453-.048-.3,2.944-.616-.042-.331-2.993.545-.059-.282,2.934-.755-.079-.307-2.087.428-.056-.293a11.457,11.457,0,0,0,1.307-.385,2.6,2.6,0,0,0,.606-.515,2.456,2.456,0,0,0-.731-.051c-.509.12-1,.315-1.5.466-.241.072-.491.113-.737.168l-.077-.285,2.812-.956-.118-.369-2.831,1-.112-.323,2.81-1.1-.109-.319-2.844,1.057-.12-.275,2.751-1.211-.114-.321-2.812,1.172-.127-.282,2.719-1.32-.155-.322-2.739,1.307-.145-.279,2.672-1.449-.17-.316-1.878.966-.154-.257,1.826-1.14c-.7-.788-1.049.094-1.473.264a9.531,9.531,0,0,0-1.431.873l-.168-.274,2.482-1.711-.178-.282-2.545,1.67-.178-.257Z" transform="translate(-43.898 -4.681)" fill="blue"/>
    <path id="Path_383" data-name="Path 383" d="M267.243-381.2A14.178,14.178,0,0,1,281.3-395.422a14.214,14.214,0,0,1,14.4,14.21,14.249,14.249,0,0,1-14,14.229A14.185,14.185,0,0,1,267.243-381.2Zm5.112,0a9.13,9.13,0,0,0,9.118,9.12,9.182,9.182,0,0,0,9.118-9.138,9.15,9.15,0,0,0-9.136-9.108A9.11,9.11,0,0,0,272.355-381.2Z" transform="translate(-57.164 -18.031)" fill="blue"/>
    <path id="Path_384" data-name="Path 384" d="M282.422-371.663A8.634,8.634,0,0,1,291.1-380.3a8.727,8.727,0,0,1,8.682,8.676,8.738,8.738,0,0,1-8.759,8.693A8.667,8.667,0,0,1,282.422-371.663Zm8.726-8.17a8.17,8.17,0,0,0-8.283,8.205,8.186,8.186,0,0,0,8.113,8.216,8.191,8.191,0,0,0,8.327-8.166A8.184,8.184,0,0,0,291.148-379.833Z" transform="translate(-66.785 -27.614)" fill="blue"/>
    <path id="Path_385" data-name="Path 385" d="M284.966-370.012a7.664,7.664,0,0,1,7.841-7.729,7.752,7.752,0,0,1,7.658,7.791,7.786,7.786,0,0,1-7.838,7.7A7.7,7.7,0,0,1,284.966-370.012Zm10.912-.007a3.16,3.16,0,0,0-3.223-3.163,3.21,3.21,0,0,0-3.175,3.158,3.2,3.2,0,0,0,3.21,3.2A3.137,3.137,0,0,0,295.878-370.019Z" transform="translate(-68.397 -29.237)" fill="blue"/>
    <path id="Path_386" data-name="Path 386" d="M299.6-360.727a2.292,2.292,0,0,1,2.372-2.381,2.372,2.372,0,0,1,2.407,2.38,2.4,2.4,0,0,1-2.407,2.391A2.315,2.315,0,0,1,299.6-360.727Z" transform="translate(-77.673 -38.512)" fill="blue"/>
  </g>
</svg>
