<?xml version="1.0" encoding="UTF-8"?>
<svg xmlns="http://www.w3.org/2000/svg" xmlns:xlink="http://www.w3.org/1999/xlink" width="9px" height="13px" viewBox="0 0 9 12" version="1.1">
<g id="surface1">
<path style=" stroke:none;fill-rule:nonzero;fill:rgb(0%,0%,0%);fill-opacity:1;" d="M 6.285156 5.980469 L 0.332031 1.457031 C 0.125 1.316406 0 1.09375 0 0.851562 C 0 0.613281 0.125 0.386719 0.332031 0.25 C 0.804688 -0.0820312 1.449219 -0.0820312 1.921875 0.25 L 8.671875 5.375 C 8.871094 5.507812 8.992188 5.722656 9 5.957031 C 9.007812 6.1875 8.898438 6.410156 8.707031 6.554688 L 1.933594 11.714844 C 1.457031 12.046875 0.8125 12.046875 0.339844 11.714844 C 0.132812 11.578125 0.0078125 11.351562 0.0078125 11.113281 C 0.0078125 10.871094 0.132812 10.644531 0.339844 10.507812 Z M 6.285156 5.980469 "/>
</g>
</svg>
