<svg xmlns="http://www.w3.org/2000/svg" width="40" height="40" viewBox="0 0 40 40">
  <g id="Group_496" data-name="Group 496" transform="translate(-19 -539)">
    <rect id="Rectangle_158" data-name="Rectangle 158" width="40" height="40" rx="7" transform="translate(19 539)" fill="#0ca4e8"/>
    <path id="Icon_awesome-telegram-plane" data-name="Icon awesome-telegram-plane" d="M21.926,6.207,18.608,21.855c-.25,1.1-.9,1.379-1.831.859l-5.056-3.725L9.282,21.334a1.27,1.27,0,0,1-1.016.5l.363-5.149L18,8.214c.407-.363-.088-.564-.633-.2L5.782,15.307.8,13.746c-1.085-.339-1.1-1.085.226-1.605L20.527,4.626C21.43,4.288,22.221,4.828,21.926,6.207Z" transform="translate(28.005 545.252)" fill="#fff"/>
  </g>
</svg>
