<svg xmlns="http://www.w3.org/2000/svg" width="40" height="40" viewBox="0 0 40 40">
  <g id="Group_494" data-name="Group 494" transform="translate(-19 -539)">
    <rect id="Rectangle_158" data-name="Rectangle 158" width="40" height="40" rx="7" transform="translate(19 539)" fill="#04f"/>
    <path id="Icon_awesome-twitter" data-name="Icon awesome-twitter" d="M21.682,8.272c.015.215.015.429.015.644A14,14,0,0,1,7.606,23.008,14,14,0,0,1,0,20.785a10.246,10.246,0,0,0,1.2.061A9.919,9.919,0,0,0,7.345,18.73,4.962,4.962,0,0,1,2.714,15.3a6.246,6.246,0,0,0,.935.077,5.238,5.238,0,0,0,1.3-.169A4.954,4.954,0,0,1,.981,10.342v-.061a4.988,4.988,0,0,0,2.239.629A4.96,4.96,0,0,1,1.687,4.285,14.078,14.078,0,0,0,11.9,9.468a5.591,5.591,0,0,1-.123-1.135,4.958,4.958,0,0,1,8.572-3.389,9.751,9.751,0,0,0,3.143-1.2,4.939,4.939,0,0,1-2.177,2.729,9.929,9.929,0,0,0,2.852-.767A10.647,10.647,0,0,1,21.682,8.272Z" transform="translate(26.917 545.805)" fill="#fff"/>
  </g>
</svg>
