<svg xmlns="http://www.w3.org/2000/svg" width="25.701" height="25.714" viewBox="0 0 25.701 25.714">
  <g id="Group_548" data-name="Group 548" transform="translate(-9.563 -110)">
    <path id="Path_373" data-name="Path 373" d="M258.257-400.247c-.171.124-.35.239-.512.374s-.255.312-.419.393c-.428.214-.874.395-1.32.569-.273.106-.543.257-.859.062a.388.388,0,0,0-.373.075c-.33.455-.838.4-1.293.489a2.392,2.392,0,0,1-1.055.091,3.426,3.426,0,0,0-1.546-.011,3.662,3.662,0,0,1-1.814-.243,4.861,4.861,0,0,0-1.446-.388,5.245,5.245,0,0,1-1.6-.625c-.187-.089-.305-.314-.476-.449a1.864,1.864,0,0,0-.474-.265,3.139,3.139,0,0,1-.591-.176,10.815,10.815,0,0,1-1.21-.92,4.054,4.054,0,0,1-.4-.617,1.859,1.859,0,0,0-.4-.372c-.157-.113-.376-.159-.5-.3-.318-.358-.6-.747-.891-1.129a1.036,1.036,0,0,1-.292-.82c.018-.118-.134-.275-.232-.395a3.814,3.814,0,0,1-.51-.584,10.491,10.491,0,0,1-.56-1.368,2.729,2.729,0,0,1-.025-.584c-.018-.18,0-.448-.11-.518a.832.832,0,0,1-.34-.662c-.072-.488-.156-.976-.182-1.467a2.754,2.754,0,0,1,.157-.684c.028-.129.1-.312.047-.385-.443-.576-.16-1.192-.1-1.781.043-.424.009-.917.476-1.2a.32.32,0,0,0,.075-.3c-.231-.509.067-.93.217-1.368a2.4,2.4,0,0,1,.435-.923,4.1,4.1,0,0,0,.829-1.406,3.469,3.469,0,0,1,1.1-1.412,4.719,4.719,0,0,0,1.054-1.072,5.057,5.057,0,0,1,1.279-1.019,4.031,4.031,0,0,1,.7-.238,1.9,1.9,0,0,0,.456-.285c.149-.122.251-.322.416-.4a13.561,13.561,0,0,1,1.477-.618,2.72,2.72,0,0,1,.659-.023c.155-.011.386,0,.449-.091.258-.373.65-.361,1.017-.422a7.159,7.159,0,0,1,1.1-.133,3.44,3.44,0,0,1,.719.164c.13.028.32.1.388.045.513-.437,1.075-.146,1.613-.132a1.717,1.717,0,0,1,.878.171,2.746,2.746,0,0,0,1.372.383,3.733,3.733,0,0,1,1.765.728,6.141,6.141,0,0,0,1.309.753,3.317,3.317,0,0,1,1.471,1.147,5.407,5.407,0,0,0,1.134,1.112,8.848,8.848,0,0,1,1.034,1.327.605.605,0,0,1,.15.4.538.538,0,0,0,.362.681.607.607,0,0,1,.273.271c.22.471.429.949.618,1.433a.905.905,0,0,1,.058.857c-.056.1.1.331.179.493s.231.306.26.474a5.679,5.679,0,0,1,.2,1.745,5.072,5.072,0,0,0,0,1.549,3.47,3.47,0,0,1-.234,1.773,6.019,6.019,0,0,0-.416,1.558,3.207,3.207,0,0,1-.7,1.642,4.811,4.811,0,0,0-.776,1.372,5.444,5.444,0,0,1-.933,1.246c-.156.177-.421.252-.612.4a2.139,2.139,0,0,0-.384.433c-.089.124-.111.312-.22.4-.475.392-.967.765-1.463,1.131a1.754,1.754,0,0,1-.393.164Zm-17.937-7.9a11.6,11.6,0,0,0,3.03,5.409,11.593,11.593,0,0,0,8.258,3.455,11.52,11.52,0,0,0,8.312-3.41,11.5,11.5,0,0,0,3.466-8.277,11.469,11.469,0,0,0-3.406-8.3,11.549,11.549,0,0,0-8.3-3.468,11.2,11.2,0,0,0-8.272,3.411A11.52,11.52,0,0,0,240.32-408.149Z" transform="translate(-229.233 533.871)" fill="blue"/>
    <path id="Path_382" data-name="Path 382" d="M260.991-394.1a13.975,13.975,0,0,1-1.568.391,2.673,2.673,0,0,1-1.648,0c-.147-.071-.406.133-.606.117a9.387,9.387,0,0,1-1.789-.239c-.962-.273-1.9-.638-2.838-.982-.138-.05-.239-.2-.358-.3-.06-.051-.116-.13-.184-.143a3.993,3.993,0,0,1-2.074-1.438c-.212-.223-.47-.385-.665-.613-.329-.385-.642-.785-.953-1.185-.323-.416-.479-.926-.782-1.364a6.413,6.413,0,0,1-.635-1.465,2.945,2.945,0,0,1-.086-.665c-.006-.054.009-.122-.019-.159a3.51,3.51,0,0,1-.471-2.194,26.271,26.271,0,0,1,.158-2.84,12.791,12.791,0,0,1,.411-1.509,7.446,7.446,0,0,1,.6-1.482,2.164,2.164,0,0,1,.348-.43c.035-.041.1-.075.107-.118a3.452,3.452,0,0,1,1.21-1.9,28.857,28.857,0,0,1,2.276-2,1.641,1.641,0,0,1,.519-.192c.051-.018.129-.011.153-.046a3.11,3.11,0,0,1,1.875-.993,16.6,16.6,0,0,1,3.1-.609,14.574,14.574,0,0,1,2.663.141,3.587,3.587,0,0,1,.855.312c.038.014.078.045.113.04a3.264,3.264,0,0,1,2.071.644,27.506,27.506,0,0,1,2.562,1.708,1.809,1.809,0,0,1,.343.478c.031.044.052.112.094.129a3.444,3.444,0,0,1,1.467,1.591,14.861,14.861,0,0,1,.793,1.34,14.5,14.5,0,0,1,.6,1.484,1.653,1.653,0,0,1,.033.468c0,.065-.024.15.007.194a4.057,4.057,0,0,1,.507,2.354,16.689,16.689,0,0,1-.153,2.5,3.79,3.79,0,0,1-.33.889c-.015.038-.056.077-.05.109a3.3,3.3,0,0,1-.682,2.174,10.722,10.722,0,0,1-.725,1.284c-.3.406-.606.812-.933,1.2a2.121,2.121,0,0,1-.447.317c-.044.03-.116.047-.132.088A3.62,3.62,0,0,1,264-395.458c-.851.512-1.786.882-2.688,1.31a2.115,2.115,0,0,1-.313.095Zm5.027-16.961-.129-.157-1.253.946-.111-.137,1.23-1.008-.109-.132-1.243.976-.092-.116,1.158-1.064-.12-.127-1.175,1.044-.12-.126,1.137-1.1-.127-.131-.806.74-.105-.126.716-.757-.148-.218c-.459.257-.7.853-1.156,1.114l-.086-.092,1.018-1.208-.136-.11-1.041,1.182-.114-.105.957-1.238-.141-.113-.973,1.238-.132-.106.905-1.279-.151-.1-.917,1.275-.136-.088.854-1.342-.14-.084-.9,1.3-.117-.087.8-1.355-.159-.089-.572.93-.151-.082.559-1.019c-.515-.111-.481.335-.623.527a6.066,6.066,0,0,0-.422.77l-.159-.09.7-1.4-.117-.075c-.4.357-.411,1-.789,1.373l-.11-.059.623-1.434-.169-.073-.648,1.441-.107-.046c.042-.524.45-.971.482-1.5l-.151-.04-.541,1.453-.164-.055.5-1.5-.19-.064-.492,1.5-.166-.056c.076-.265.156-.529.228-.8.066-.245.122-.492.183-.738l-.153-.026-.328,1.037-.139-.036.231-1.1c-.525.035-.356.442-.443.669a5.9,5.9,0,0,0-.195.833l-.169-.031.275-1.535-.176-.025c-.051.258-.1.517-.155.775s-.111.489-.167.734l-.141-.041.224-1.513-.181-.031-.248,1.543-.152-.029.152-1.561-.171-.021-.188,1.558-.154-.017.087-1.543-.164-.014-.144,1.559-.149-.015v-1.571l-.123-.011-.1,1.107-.15-.017a3.307,3.307,0,0,0-.006-.519,4.589,4.589,0,0,0-.161-.561,3.5,3.5,0,0,0-.131.57c-.022.335-.006.672-.006,1.008l-.126,0-.148-1.544-.168.015q.05.772.1,1.543l-.152.011-.2-1.555-.183.014.176,1.583-.161.015-.262-1.55-.181.034.25,1.533-.156.028-.342-1.518-.173.045c.056.257.116.513.166.77s.086.5.128.75l-.149.032-.383-1.518-.173.044.235,1.076-.147.034-.314-1.021-.161-.011c-.244.218.021.5.074.739.062.285.17.561.257.84l-.163.051-.532-1.485-.166.063.5,1.492-.151.063-.586-1.475-.186.083.6,1.449-.166.07c-.11-.246-.208-.5-.335-.736s-.115-.551-.516-.713l.666,1.538-.149.067-.693-1.424-.167.088.675,1.43-.147.07-.74-1.389-.167.08.5,1.009-.141.066c-.116-.193-.233-.385-.348-.579-.214-.36-.213-.36-.465-.155l.823,1.292-.142.092-.91-1.3-.153.108.9,1.3-.141.1-.939-1.256-.152.1.927,1.282-.122.086-1.012-1.2-.13.115.991,1.218-.122.1-1.067-1.172-.133.121,1.043,1.192-.121.105-1.1-1.133-.126.12.738.819-.118.115c-.2-.2-.394-.411-.613-.589-.078-.063-.224-.041-.339-.058l-.03.127,1.136,1.059-.089.108c-.478-.233-.769-.758-1.256-.975l-.084.109,1.187,1.036-.1.132-1.234-.981-.122.156,1.241.976-.1.129-1.293-.913-.106.153c.212.15.424.3.635.45s.422.308.633.463l-.1.139-1.29-.866-.1.14,1.3.909-.085.133-1.345-.827-.091.153.907.612-.075.12-.941-.5-.108.06c.05.106.073.259.156.309.28.17.585.3.876.454a2.874,2.874,0,0,1,.291.2l-.07.128-1.419-.692-.076.17,1.409.7-.072.14c-.256-.11-.514-.216-.768-.33-.561-.253-.56-.255-.766-.113l1.461.631-.05.12c-.529-.039-.974-.475-1.51-.485l-.036.141,1.468.566-.06.163-1.489-.519-.064.152c.434.3,1.027.284,1.473.563l-.034.125-1.523-.411-.04.163,1.044.344-.049.144a8.307,8.307,0,0,1-.806-.2c-.266-.094-.308.017-.3.248l1.512.362-.033.154-1.562-.291-.036.185,1.555.3-.032.15-.784-.1-.76-.1-.024.16,1.526.258-.03.152-1.523-.158-.026.179,1.556.184-.022.15-1.573-.079-.012.2,1.572.068-.008.175c-.524.037-1.064-.086-1.582,0l0,.158,1.1.071-.006.133H247.5c-.006.115-.013.213-.011.213.526.051,1.052.095,1.578.139l.012.1-1.555.132.02.174c.262-.014.525-.028.787-.044s.506-.033.76-.05l.011.149-1.554.212.031.178,1.548-.19.025.163-1.537.26.027.184c.249-.04.5-.084.747-.119s.526-.068.789-.1l.019.145-1.51.308.023.178,1.552-.285c-.417.416-1.052.254-1.478.6l.036.117,1.053-.235.037.141-1.01.322-.033.123c.109.036.231.124.325.1.344-.087.678-.216,1.018-.319a1.213,1.213,0,0,1,.276-.019l.025.112-1.487.531.061.168,1.5-.506.048.145c-.169.07-.336.142-.506.209s-.362.13-.536.209c-.139.063-.267.149-.4.225l.073.117,1.463-.572.06.144-1.444.658.082.176,1.432-.654.077.148-1.411.718.061.127c.264.01.464-.189.691-.29.252-.111.5-.243.742-.365l.062.1c-.372.381-.981.46-1.353.842l.085.122.972-.5.079.134c-.258.155-.522.3-.772.471-.057.038-.068.147-.1.223.09.013.2.066.266.032.228-.124.438-.282.659-.418.169-.1.346-.195.519-.291l.078.127c-.23.154-.463.3-.688.464-.2.145-.4.3-.6.453l.107.13,1.29-.891.091.127c-.35.4-.923.565-1.235,1l.1.116,1.254-.951.1.127-1.207,1.018.116.132,1.222-.981.095.119-1.161,1.058.122.133,1.179-1.051.11.129-1.131,1.109.118.119.822-.731.107.114c-.191.2-.373.4-.575.588s-.164.284.079.377l1.048-1.119.113.107-1.017,1.218.132.11,1.049-1.187.114.1-.964,1.243.139.106,1-1.225.127.108-.941,1.257.161.122.931-1.276.138.094-.876,1.323.155.107.885-1.314.132.092-.8,1.353.152.09.6-.933.127.077c-.1.194-.206.391-.316.583-.209.366-.211.365.084.507l.724-1.363.154.081-.689,1.408.159.084.708-1.4.137.061-.6,1.455.168.065.625-1.437.162.067-.577,1.449.155.073c.309-.427.33-1.017.672-1.433.031.551-.386,1.007-.357,1.546l.128.036.5-1.486.115.039c.024.538-.405,1.012-.326,1.558l.114.027.329-1.06.166.055c-.079.279-.17.555-.228.837-.016.076.065.173.1.26.069-.058.181-.105.2-.177.094-.357.16-.721.246-1.08a1.154,1.154,0,0,1,.123-.243l.11.039-.3,1.524.157.047c.237-.466.132-1.058.376-1.521l.118.025-.224,1.538.178.03.258-1.553.151.022c-.03.272-.065.544-.088.816-.022.255-.03.511-.044.766h.16q.09-.775.18-1.551l.127.012v1.54l.127,0,.105-1.53.153,0v1.547l.151,0,.094-1.07.148.013c0,.255-.016.511.008.764.01.1.107.2.164.3.049-.107.139-.214.139-.32,0-.329-.042-.656-.057-.985a1.289,1.289,0,0,1,.046-.274l.125,0,.135,1.557.175-.02q-.047-.763-.094-1.526l.146-.015.2,1.545.171-.017-.153-1.593.143-.012.271,1.555.167-.034-.216-1.54.122-.015c.233.47.1,1.062.4,1.51l.125-.032-.3-1.523.153-.031.4,1.514.166-.048c-.04-.178-.083-.355-.118-.534s-.06-.36-.089-.54l.128-.025.315,1.055.283-.127-.437-1.482.154-.048.508,1.486.193-.059-.527-1.492.171-.054.566,1.458.177-.065-.565-1.484.148-.063.646,1.445.18-.08-.659-1.442.168-.074.686,1.417.171-.075-.682-1.445.114-.062c.352.393.447.989.834,1.354l.12-.086-.507-.945.148-.077.558.918.141-.016a1.007,1.007,0,0,0,.011-.325,1.329,1.329,0,0,0-.189-.316q-.266-.411-.535-.82l.146-.1.9,1.3.151-.1-.889-1.31.153-.1c.159.224.313.453.48.671.153.2.32.388.481.582l.11-.107-.92-1.26.132-.094c.176.218.355.433.527.654.384.491.382.492.6.428l-.979-1.214.127-.1,1.05,1.183.148-.123-1.058-1.187.129-.109,1.1,1.115.127-.123-.75-.8.12-.105.822.77c.277-.466-.2-.529-.339-.72a5.579,5.579,0,0,0-.618-.612l.112-.108c.213.184.429.364.64.551.468.414.467.415.673.319l-1.2-1.024.115-.13,1.235.977.118-.138-1.236-.994.084-.124,1.313.9.093-.145-1.268-.913.1-.144,1.317.868.1-.159-1.311-.877.091-.131,1.351.8.087-.153-.918-.589.088-.133.936.515.151-.185c-.333-.428-1.006-.473-1.368-.869l.068-.109,1.421.689.079-.163-1.414-.71.072-.142,1.436.628.079-.185-1.455-.623.065-.155,1.488.569.072-.179-1.474-.572.066-.154,1.49.5.059-.184-1.5-.5.054-.155,1.523.42.042-.158-1.051-.363.041-.126,1.047.235c.163-.261.018-.323-.187-.366-.414-.087-.825-.184-1.238-.276l.029-.163,1.541.29.034-.185-1.541-.3.035-.154.789.108.749.105.028-.175-1.549-.26.027-.141,1.562.145.023-.177-1.555-.172.024-.162,1.54.09.019-.191-1.574-.089.007-.174h1.569v-.151l-1.078-.071.011-.153c.213,0,.426.013.637,0,.175-.014.476.116.4-.319H266.4l-.006-.119,1.568-.121-.02-.191-1.57.111,0-.152,1.559-.2-.021-.183-1.565.183-.02-.168,1.559-.251-.028-.182-1.564.237-.025-.155,1.536-.321-.022-.173-1.562.284-.031-.147,1.531-.394-.041-.16-1.089.223-.029-.153a5.982,5.982,0,0,0,.682-.2,1.356,1.356,0,0,0,.316-.269,1.281,1.281,0,0,0-.382-.027c-.266.063-.522.165-.784.243-.126.038-.256.059-.385.088l-.04-.148,1.468-.5-.062-.192-1.478.522-.059-.169,1.467-.572-.057-.167-1.484.552-.062-.144,1.436-.632-.059-.168-1.467.612-.066-.147,1.419-.689-.081-.168-1.429.682-.076-.146,1.395-.756-.089-.165-.98.5-.08-.134.953-.595c-.367-.411-.548.049-.769.138a4.977,4.977,0,0,0-.747.455l-.088-.143,1.3-.893-.093-.147-1.328.872-.093-.134Z" transform="translate(-235.313 527.897)" fill="blue"/>
    <path id="Path_383" data-name="Path 383" d="M267.243-388a7.4,7.4,0,0,1,7.337-7.421,7.418,7.418,0,0,1,7.517,7.416,7.437,7.437,0,0,1-7.305,7.427A7.4,7.4,0,0,1,267.243-388Zm2.668,0a4.765,4.765,0,0,0,4.759,4.76,4.792,4.792,0,0,0,4.759-4.77,4.776,4.776,0,0,0-4.768-4.754A4.755,4.755,0,0,0,269.911-388Z" transform="translate(-252.243 510.86)" fill="blue"/>
    <path id="Path_384" data-name="Path 384" d="M282.422-375.793a4.507,4.507,0,0,1,4.53-4.509,4.555,4.555,0,0,1,4.531,4.528,4.56,4.56,0,0,1-4.571,4.537A4.524,4.524,0,0,1,282.422-375.793Zm4.554-4.264a4.264,4.264,0,0,0-4.323,4.282,4.272,4.272,0,0,0,4.234,4.288,4.275,4.275,0,0,0,4.346-4.262A4.272,4.272,0,0,0,286.976-380.057Z" transform="translate(-264.521 498.629)" fill="blue"/>
    <path id="Path_385" data-name="Path 385" d="M284.966-373.707a4,4,0,0,1,4.092-4.034,4.046,4.046,0,0,1,4,4.066,4.064,4.064,0,0,1-4.091,4.019A4.019,4.019,0,0,1,284.966-373.707Zm5.7,0a1.649,1.649,0,0,0-1.682-1.651,1.675,1.675,0,0,0-1.657,1.648A1.672,1.672,0,0,0,289-372.045,1.637,1.637,0,0,0,290.661-373.711Z" transform="translate(-266.579 496.558)" fill="blue"/>
    <path id="Path_386" data-name="Path 386" d="M299.6-361.866a1.2,1.2,0,0,1,1.238-1.243,1.238,1.238,0,0,1,1.256,1.242,1.25,1.25,0,0,1-1.256,1.248A1.208,1.208,0,0,1,299.6-361.866Z" transform="translate(-278.417 484.722)" fill="blue"/>
  </g>
</svg>
