<svg xmlns="http://www.w3.org/2000/svg" width="24.373" height="21.326" viewBox="0 0 24.373 21.326">
  <path id="Icon_awesome-wallet" data-name="Icon awesome-wallet" d="M21.955,6.82H3.808a.762.762,0,1,1,0-1.523h18.28a.761.761,0,0,0,.762-.762A2.285,2.285,0,0,0,20.565,2.25H3.047A3.046,3.046,0,0,0,0,5.3V20.53a3.046,3.046,0,0,0,3.047,3.047H21.955a2.357,2.357,0,0,0,2.418-2.285V9.1A2.357,2.357,0,0,0,21.955,6.82Zm-2.152,9.9A1.523,1.523,0,1,1,21.326,15.2,1.523,1.523,0,0,1,19.8,16.721Z" transform="translate(0 -2.25)" fill="#1c1c1c"/>
</svg>
