<svg xmlns="http://www.w3.org/2000/svg" width="40" height="40" viewBox="0 0 40 40">
  <g id="Group_498" data-name="Group 498" transform="translate(-19 -539)">
    <rect id="Rectangle_158" data-name="Rectangle 158" width="40" height="40" rx="7" transform="translate(19 539)" fill="#f92323"/>
    <path id="Icon_awesome-youtube" data-name="Icon awesome-youtube" d="M23.292,7a2.854,2.854,0,0,0-2.008-2.021C19.512,4.5,12.408,4.5,12.408,4.5s-7.1,0-8.875.478A2.854,2.854,0,0,0,1.525,7a29.943,29.943,0,0,0-.475,5.5,29.943,29.943,0,0,0,.475,5.5,2.812,2.812,0,0,0,2.008,1.989c1.772.478,8.875.478,8.875.478s7.1,0,8.875-.478a2.812,2.812,0,0,0,2.008-1.989,29.943,29.943,0,0,0,.475-5.5A29.943,29.943,0,0,0,23.292,7ZM10.085,15.88V9.125L16.022,12.5,10.085,15.88Z" transform="translate(26.592 546.514)" fill="#fff"/>
  </g>
</svg>
